<svg width="480" height="81" viewBox="0 0 480 81" fill="none" xmlns="http://www.w3.org/2000/svg">
<g clip-path="url(#clip0_234_2)">
<path d="M41.2213 24.4924C44.5387 24.4954 47.7807 25.4801 50.5376 27.3222C53.2945 29.1642 55.4425 31.7809 56.7099 34.8414C57.9774 37.902 58.3075 41.269 57.6585 44.5167C57.0096 47.7645 55.4106 50.7474 53.0638 53.0881C50.717 55.4289 47.7278 57.0225 44.4739 57.6675C41.22 58.3125 37.8476 57.98 34.783 56.7119C31.7184 55.4439 29.0992 53.2973 27.2565 50.5434C25.4137 47.7896 24.4302 44.5521 24.4302 41.2403C24.4341 36.7972 26.2049 32.5373 29.3534 29.3969C32.5019 26.2565 36.7706 24.4924 41.2213 24.4924Z" fill="url(#paint0_radial_234_2)"/>
<path d="M29.7552 53.4719H29.7849C32.7515 54.5973 36.7713 55.3081 41.3696 55.16C45.5377 55.0268 49.3943 54.5529 52.3461 53.6792C52.3585 53.6737 52.3723 53.6722 52.3855 53.6748C52.3988 53.6775 52.411 53.6842 52.4203 53.694C52.3591 53.7519 52.2948 53.8063 52.2274 53.8569C49.2756 54.701 45.4784 55.1748 41.3548 55.2933C36.89 55.4414 32.9592 54.7602 30.0074 53.694C29.9157 53.6291 29.8312 53.5546 29.7552 53.4719Z" fill="#E1E1E1"/>
<path d="M41.2361 24.5666C42.9419 24.5666 44.4549 24.8924 45.3894 25.3811C45.9827 25.692 46.3535 26.0771 46.3535 26.5065C46.3535 26.9359 45.9975 27.3061 45.3894 27.6319C44.4549 28.1206 42.9419 28.4463 41.2361 28.4463C39.5303 28.4463 38.0173 28.1206 37.0828 27.6319C36.4895 27.3209 36.1187 26.9359 36.1187 26.5065C36.1187 26.0771 36.4747 25.7069 37.0828 25.3811C38.0321 24.8924 39.5451 24.5666 41.2361 24.5666ZM38.6551 24.6851C39.504 24.5531 40.3621 24.4887 41.2213 24.4926C42.1405 24.4912 43.0584 24.5655 43.9654 24.7147C44.4855 24.8281 44.9889 25.0072 45.4635 25.2478C46.1162 25.6032 46.5019 26.0326 46.5019 26.5065C46.5019 26.9803 46.1162 27.4098 45.4635 27.7652C44.5142 28.2686 42.9716 28.5944 41.2361 28.5944C39.5006 28.5944 37.9728 28.2686 37.0087 27.7652C36.356 27.4098 35.9703 26.9803 35.9703 26.5065C35.9703 26.0326 36.356 25.6032 37.0087 25.2478C37.5341 24.9979 38.0865 24.8091 38.6551 24.6851Z" fill="#E1E1E1"/>
<path d="M31.2534 27.7651C31.2683 27.7738 31.2795 27.7877 31.285 27.804C31.2904 27.8203 31.2898 27.8381 31.2831 27.854C31.2083 28.0376 31.168 28.2333 31.1644 28.4315C31.1644 29.2756 31.8764 30.0604 33.0927 30.6971C34.932 31.6745 37.8987 32.2964 41.251 32.2964C44.6032 32.2964 47.5699 31.6597 49.4092 30.6971C50.6107 30.0604 51.3375 29.2904 51.3375 28.4315C51.3391 28.239 51.3038 28.0481 51.2336 27.8688C51.2188 27.8392 51.2336 27.8244 51.2485 27.7948C51.2992 27.839 51.3538 27.8787 51.4116 27.9132C51.4653 28.0755 51.4904 28.2459 51.4858 28.4167C51.4858 29.3052 50.7442 30.1344 49.4833 30.8008C47.6292 31.7781 44.6329 32.4149 41.251 32.4149C37.869 32.4149 34.8727 31.7781 33.0186 30.8008C31.7578 30.1344 31.0161 29.3052 31.0161 28.4167C31.0132 28.2241 31.0485 28.0329 31.1199 27.854C31.1707 27.8351 31.2164 27.8047 31.2534 27.7651Z" fill="#E1E1E1"/>
<path d="M27.5006 31.6003C27.5097 31.6074 27.517 31.6164 27.5222 31.6266C27.5273 31.6369 27.5301 31.6481 27.5303 31.6596C27.5484 32.0913 27.6928 32.5083 27.9456 32.859C28.3609 33.4662 29.0878 34.0733 30.0519 34.6212C32.4994 36.0131 36.5043 37.0201 41.2954 36.872C45.7454 36.7239 49.7651 36.0872 52.2719 34.8729C53.9184 34.0733 54.9122 33.0219 54.9271 31.704C54.9273 31.6925 54.9301 31.6813 54.9352 31.671C54.9403 31.6608 54.9477 31.6518 54.9567 31.6448C55.0012 31.704 55.0309 31.7484 55.0754 31.8077C55.0161 33.1404 54.0074 34.1917 52.3313 35.0062C49.8096 36.2353 45.775 36.872 41.2954 37.0201C36.4747 37.1682 32.4401 36.1464 29.9778 34.7545C28.9839 34.1917 28.2571 33.5698 27.827 32.9479C27.5795 32.603 27.4262 32.1999 27.382 31.778C27.4145 31.7144 27.4543 31.6548 27.5006 31.6003Z" fill="#E1E1E1"/>
<path d="M25.068 36.6648C25.0828 36.6648 25.0977 36.6796 25.1125 36.7092C25.6465 37.805 26.9963 38.9156 28.9394 39.8337C31.8912 41.2109 36.2373 42.1734 41.3103 41.9957C46.0865 41.8328 50.4475 41.1961 53.4586 40.0114C55.4462 39.2266 56.8406 38.19 57.3746 36.9017L57.4191 36.8573C57.4339 36.9165 57.4487 36.9758 57.4636 37.0498C56.8999 38.3381 55.4907 39.3599 53.5031 40.1447C50.4771 41.3441 46.1162 41.9957 41.3103 42.1438C36.2077 42.3067 31.8467 41.3589 28.8801 39.967C26.937 39.0489 25.5872 37.9531 25.0235 36.8573C25.0383 36.7833 25.0532 36.724 25.068 36.6648Z" fill="#E1E1E1"/>
<path d="M24.4302 41.1516C24.4358 41.1575 24.44 41.1645 24.4426 41.1722C24.4452 41.1798 24.446 41.188 24.445 41.196C24.6082 42.3807 25.8393 43.6097 27.827 44.6611C30.8529 46.2604 35.6589 47.4006 41.3548 47.2229C46.398 47.06 50.9815 46.3937 54.0816 45.135C56.1286 44.3057 57.5229 43.2247 57.9679 41.8624C57.9679 42.0105 57.953 42.1586 57.9382 42.3066C57.3597 43.5209 56.0099 44.4982 54.1261 45.2683C51.0111 46.5269 46.4129 47.2081 41.3399 47.371C35.5995 47.5487 30.7788 46.3937 27.738 44.7944C25.9728 43.8615 24.801 42.7805 24.4153 41.7143V41.2405C24.4274 41.2125 24.4325 41.182 24.4302 41.1516Z" fill="#E1E1E1"/>
<path d="M25.6465 47.5191C25.6589 47.5136 25.6726 47.512 25.6859 47.5147C25.6992 47.5173 25.7114 47.5241 25.7207 47.5339C28.2126 49.7995 34.042 51.7542 41.3548 51.5321C47.8962 51.3248 53.6514 50.2586 56.4104 48.1855C56.4326 48.172 56.4589 48.1668 56.4846 48.1707C56.4549 48.2447 56.4252 48.3039 56.3956 48.378C53.5773 50.4215 47.8517 51.4729 41.3548 51.6802C34.1014 51.9171 28.3016 49.9921 25.7355 47.756C25.7058 47.6672 25.6762 47.5931 25.6465 47.5191Z" fill="#E1E1E1"/>
<path d="M35.11 25.6328C36.9641 25.3959 39.1001 25.4551 41.2954 25.7216C41.3399 25.7216 41.3696 25.7661 41.3547 25.7957C41.3399 25.8253 41.3102 25.8697 41.2806 25.8549C38.8479 25.5588 36.5043 25.5143 34.5463 25.8549C34.7392 25.7809 34.9172 25.7068 35.11 25.6328Z" fill="#E1E1E1"/>
<path d="M47.8369 25.8549C45.8937 25.544 43.7874 25.5884 41.3993 25.8697C41.3816 25.8717 41.3638 25.8666 41.3499 25.8555C41.336 25.8443 41.3271 25.8282 41.3251 25.8105C41.3232 25.7928 41.3283 25.7751 41.3394 25.7612C41.3505 25.7473 41.3667 25.7384 41.3844 25.7365C43.5501 25.4699 45.4932 25.4107 47.288 25.6328H47.3029C47.4859 25.6941 47.6644 25.7684 47.8369 25.8549Z" fill="#E1E1E1"/>
<path d="M30.2892 28.535C32.9889 27.0691 36.6823 26.0621 41.2954 25.7363C41.3151 25.7363 41.334 25.7441 41.3479 25.758C41.3618 25.7719 41.3696 25.7907 41.3696 25.8104C41.3696 25.83 41.3618 25.8488 41.3479 25.8627C41.334 25.8766 41.3151 25.8844 41.2954 25.8844C36.3708 26.2398 32.5142 27.3652 29.7701 28.9941C29.9481 28.8312 30.1112 28.6831 30.2892 28.535Z" fill="#E1E1E1"/>
<path d="M30.2744 53.9458C25.4388 48.9406 23.4957 41.7587 26.3436 35.8207C28.4351 31.4375 33.152 27.6467 41.2806 25.7216C41.3251 25.7068 41.3548 25.7364 41.3696 25.7809C41.3844 25.8253 41.3548 25.8549 41.3103 25.8697C33.241 27.7799 28.5538 31.5412 26.4771 35.8948C23.466 42.1734 25.8838 49.8587 31.4166 54.8491C31.0161 54.5529 30.6452 54.2567 30.2744 53.9458Z" fill="#E1E1E1"/>
<path d="M31.1347 54.6416C26.9073 50.3917 25.4091 43.4763 28.2274 37.1829C30.2299 32.7257 34.3832 28.535 41.2657 25.7363C41.2834 25.7304 41.3028 25.7317 41.3195 25.7401C41.3361 25.7484 41.3488 25.763 41.3547 25.7807C41.3606 25.7984 41.3593 25.8177 41.3509 25.8343C41.3426 25.851 41.3279 25.8637 41.3102 25.8695C34.4573 28.6683 30.3189 32.8145 28.3461 37.2421C25.3943 43.8317 27.2188 51.1173 31.9802 55.2339C31.6984 55.0414 31.4165 54.8489 31.1347 54.6416Z" fill="#E1E1E1"/>
<path d="M35.3028 56.9222C27.8121 50.9546 27.2188 36.8425 41.2509 25.7365C41.2667 25.7247 41.2864 25.7196 41.3059 25.7224C41.3254 25.7252 41.3429 25.7356 41.3547 25.7513C41.3666 25.767 41.3716 25.7868 41.3688 25.8062C41.3661 25.8256 41.3557 25.8432 41.3399 25.855C27.1743 37.0498 27.9753 51.3248 35.7478 57.0851C35.5995 57.0259 35.4512 56.9815 35.3028 56.9222Z" fill="#E1E1E1"/>
<path d="M38.492 57.7809C36.5637 55.3672 35.3177 51.6652 35.0507 47.4005C34.6502 40.8998 36.4599 32.9627 41.2361 25.7659C41.242 25.7582 41.2493 25.7516 41.2577 25.7467C41.266 25.7417 41.2753 25.7384 41.285 25.7371C41.2946 25.7357 41.3044 25.7362 41.3139 25.7386C41.3233 25.7411 41.3322 25.7453 41.34 25.7511C41.3477 25.757 41.3543 25.7643 41.3593 25.7726C41.3642 25.781 41.3675 25.7903 41.3689 25.7999C41.3703 25.8095 41.3697 25.8193 41.3673 25.8287C41.3649 25.8382 41.3606 25.847 41.3548 25.8548C36.5933 33.0367 34.8134 40.9442 35.199 47.4005C35.466 51.6948 36.7417 55.4265 38.6997 57.8105C38.6319 57.7924 38.5622 57.7825 38.492 57.7809Z" fill="#E1E1E1"/>
<path d="M41.7404 57.9883C40.4055 50.2733 41.5476 37.2422 41.2213 25.8104C41.2213 25.7907 41.2291 25.7719 41.243 25.758C41.2569 25.7441 41.2758 25.7363 41.2954 25.7363C41.3151 25.7363 41.334 25.7441 41.3479 25.758C41.3618 25.7719 41.3696 25.7907 41.3696 25.8104C41.6811 37.257 40.5538 50.2881 41.8888 57.9883H41.7404Z" fill="#E1E1E1"/>
<path d="M43.9209 57.7811V57.7663C47.8072 49.2072 47.8072 34.4732 41.2361 25.8401C41.2243 25.8244 41.2192 25.8047 41.222 25.7852C41.2248 25.7658 41.2352 25.7483 41.2509 25.7365C41.2667 25.7247 41.2864 25.7196 41.3059 25.7224C41.3254 25.7252 41.3429 25.7356 41.3547 25.7513C47.9258 34.3992 47.9555 49.148 44.084 57.7515C44.0395 57.7663 43.9802 57.7663 43.9209 57.7811Z" fill="#E1E1E1"/>
<path d="M46.7244 57.0702C46.7392 57.0554 46.7392 57.0406 46.754 57.0406C47.911 56.5667 48.8603 55.6338 49.602 54.39C50.7293 52.4945 51.3671 49.8587 51.471 46.9119C51.738 39.5375 48.6378 30.2529 41.2509 25.8697C41.2422 25.8648 41.2345 25.8583 41.2282 25.8504C41.222 25.8426 41.2174 25.8336 41.2146 25.824C41.2119 25.8144 41.211 25.8043 41.2122 25.7943C41.2133 25.7844 41.2164 25.7748 41.2213 25.766C41.2261 25.7573 41.2327 25.7496 41.2406 25.7433C41.2484 25.7371 41.2574 25.7325 41.2671 25.7297C41.2767 25.727 41.2868 25.7262 41.2967 25.7273C41.3067 25.7284 41.3163 25.7315 41.3251 25.7364C48.7565 30.1492 51.8863 39.4931 51.6193 46.9119C51.5155 49.8883 50.8628 52.539 49.7207 54.4492C49.2206 55.3378 48.5259 56.1022 47.6885 56.6852C47.377 56.8333 47.0507 56.9518 46.7244 57.0702Z" fill="#E1E1E1"/>
<path d="M52.1681 53.9458C57.0037 48.9406 58.9469 41.7587 56.0989 35.8207C54.0074 31.4375 49.2905 27.6467 41.162 25.7216C41.1175 25.7068 41.0878 25.7364 41.073 25.7809C41.0581 25.8253 41.0878 25.8549 41.1323 25.8697C49.2015 27.7799 53.8888 31.5412 55.9654 35.8948C58.9765 42.1734 56.5587 49.8587 51.026 54.8491C51.4265 54.5529 51.7973 54.2567 52.1681 53.9458Z" fill="#E1E1E1"/>
<path d="M51.3078 54.6416C55.5352 50.3917 57.0334 43.4763 54.2151 37.1829C52.2126 32.7257 48.0593 28.535 41.1768 25.7363C41.1591 25.7304 41.1398 25.7317 41.1231 25.7401C41.1064 25.7484 41.0937 25.763 41.0878 25.7807C41.0819 25.7984 41.0832 25.8177 41.0916 25.8343C41.0999 25.851 41.1146 25.8637 41.1323 25.8695C47.9852 28.6683 52.1236 32.8145 54.0964 37.2421C57.0482 43.8317 55.2238 51.1173 50.4623 55.2339C50.7441 55.0414 51.026 54.8489 51.3078 54.6416Z" fill="#E1E1E1"/>
<path d="M52.3906 28.7573C49.6465 27.0396 45.9827 25.9586 41.2954 25.8698C41.2757 25.8698 41.2569 25.862 41.243 25.8481C41.2291 25.8342 41.2213 25.8154 41.2213 25.7957C41.2213 25.7761 41.2291 25.7573 41.243 25.7434C41.2569 25.7295 41.2757 25.7217 41.2954 25.7217C45.6119 25.7957 49.068 26.7138 51.7379 28.1946C51.9604 28.3723 52.1829 28.5648 52.3906 28.7573Z" fill="#E1E1E1"/>
<path d="M42.0519 24.5073H42.1854L41.3696 25.8697C41.3647 25.8784 41.3582 25.8861 41.3503 25.8923C41.3425 25.8986 41.3335 25.9032 41.3238 25.9059C41.3142 25.9087 41.3041 25.9095 41.2941 25.9084C41.2842 25.9072 41.2745 25.9041 41.2658 25.8993C41.257 25.8944 41.2493 25.8879 41.2431 25.88C41.2368 25.8722 41.2322 25.8632 41.2294 25.8536C41.2267 25.844 41.2259 25.8339 41.227 25.8239C41.2281 25.814 41.2312 25.8044 41.2361 25.7956L42.0074 24.5073H42.0519Z" fill="#E1E1E1"/>
<path d="M40.5538 24.5073H40.4203L41.2361 25.8697C41.241 25.8784 41.2475 25.8861 41.2554 25.8923C41.2632 25.8986 41.2722 25.9032 41.2819 25.9059C41.2915 25.9087 41.3016 25.9095 41.3116 25.9084C41.3215 25.9072 41.3312 25.9041 41.3399 25.8993C41.3487 25.8944 41.3564 25.8879 41.3627 25.88C41.3689 25.8722 41.3735 25.8632 41.3763 25.8536C41.379 25.844 41.3799 25.8339 41.3787 25.8239C41.3776 25.814 41.3745 25.8044 41.3696 25.7956L40.5983 24.5073H40.5538Z" fill="#E1E1E1"/>
<path d="M47.9852 26.1659C48.2077 26.2695 48.445 26.388 48.6972 26.5213L48.7268 26.5361L47.9852 26.1659ZM48.445 28.9942C48.4895 29.0534 48.5785 29.2163 48.5637 29.2459C48.534 29.2459 48.534 29.2459 48.534 29.394C48.534 29.4829 48.5192 29.6309 48.356 29.6161C48.2225 29.6013 48.1187 29.4829 47.9703 29.4829H47.8368C47.8309 29.481 47.8254 29.478 47.8207 29.474C47.816 29.47 47.8121 29.4651 47.8094 29.4596C47.8066 29.454 47.805 29.448 47.8046 29.4418C47.8042 29.4356 47.8051 29.4295 47.8072 29.4236C47.8368 29.3644 47.8813 29.2756 47.5402 29.1571C47.7182 29.1571 47.5847 28.9942 47.5698 28.9794C47.5253 28.935 47.4808 28.9498 47.4215 28.9498C47.3988 28.9584 47.374 28.9601 47.3503 28.9549C47.3266 28.9496 47.3049 28.9376 47.288 28.9202C47.2732 28.9054 47.2287 28.8017 47.3028 28.7869C47.3442 28.787 47.3849 28.7972 47.4215 28.8165C47.3177 28.7277 47.1693 28.6092 47.2732 28.5944H47.288C47.3801 28.6471 47.4608 28.7175 47.5253 28.8017C47.5515 28.8491 47.5935 28.8857 47.644 28.9054C47.6588 28.9054 47.6737 28.9202 47.6885 28.9054C47.6885 28.9014 47.6901 28.8977 47.6928 28.8949C47.6956 28.8921 47.6994 28.8905 47.7033 28.8905C47.7182 28.8609 47.7182 28.8313 47.733 28.8017C47.7596 28.7777 47.7896 28.7578 47.822 28.7425C47.911 28.6684 48.1335 28.5352 48.445 28.9942ZM41.7701 24.6406C41.791 24.6384 41.812 24.6437 41.8294 24.6554L41.8739 24.6703C42.5487 24.8187 43.2089 25.0269 43.8467 25.2922C43.8387 25.2912 43.8305 25.292 43.8228 25.2946C43.8151 25.2972 43.8081 25.3014 43.8022 25.307V25.3514C43.8171 25.3662 43.8171 25.3662 44.8999 25.9586C45.0714 26.0516 45.2187 26.1835 45.33 26.3436C45.3294 26.3512 45.326 26.3583 45.3206 26.3638C45.3152 26.3692 45.308 26.3725 45.3004 26.3732C45.6564 26.773 46.1904 26.9951 46.4277 27.5134C46.4277 27.5134 46.5315 28.0761 46.0717 28.0465C45.8937 28.0317 45.8937 28.0317 45.864 28.0465C45.9827 28.4315 45.9827 28.4315 45.8937 28.6832C45.8195 28.9054 45.508 28.9202 45.4932 29.1867C45.4784 29.3496 45.6415 29.4384 45.6564 29.5865C45.6712 29.6754 45.5377 29.7198 45.5525 29.8086C45.5655 29.8747 45.5854 29.9392 45.6119 30.0011C45.7009 30.2677 45.7454 30.4158 45.7157 30.549C45.686 30.7564 45.5229 30.6823 45.4042 30.6231C45.2855 30.5639 45.2855 30.3269 45.0927 30.3565C44.8702 30.3862 44.8257 30.3862 44.7664 30.3121C44.7515 30.2973 43.6984 28.9942 43.5056 28.3278C43.4166 28.0169 43.4017 27.9576 43.5352 27.9132C43.6687 27.8688 43.5797 27.6171 43.5797 27.6022C43.4462 27.3357 43.1051 27.3801 42.9271 27.1728C43.1051 27.1136 43.2237 27.3357 43.4017 27.2913C43.3869 27.2617 43.3572 27.2172 42.9122 26.773C42.9122 26.7878 42.8974 26.7878 42.8826 26.8026C42.8974 26.9655 42.8974 26.9655 42.8974 26.9951C42.8529 26.9803 42.7194 26.9359 42.7046 26.6841C42.6304 26.003 41.5476 25.3662 41.3103 25.5291V25.5735C41.0878 25.4847 41.0581 25.4255 41.0433 25.3662C40.9098 25.3218 40.8653 25.2922 40.8801 25.2181C40.9246 25.1885 40.9246 25.1885 41.0136 25.1885C40.9394 25.0997 40.7763 25.0997 40.7614 24.9516C40.7614 24.8924 40.7911 24.7887 40.9691 24.7739C40.9607 24.7222 40.9344 24.6751 40.8949 24.6406H41.7701ZM51.4116 32.3556C51.4265 32.4149 51.3968 32.4741 51.4116 32.5333C51.4281 32.5696 51.448 32.6043 51.471 32.637C51.5236 32.7337 51.5588 32.839 51.5748 32.9479C51.5758 32.9735 51.5707 32.9988 51.5599 33.022C51.5451 33.0664 51.4709 33.0664 51.4561 33.1108C51.4413 33.1553 51.4561 33.2145 51.4413 33.2589H51.4265C51.362 33.2219 51.3063 33.1714 51.2633 33.1108C51.2512 33.0829 51.2461 33.0524 51.2485 33.022C51.2591 32.9076 51.249 32.7922 51.2188 32.6814C51.204 32.6518 51.204 32.6666 51.1891 32.6814C51.1743 32.6962 51.115 32.7703 51.0111 32.5629C50.9666 32.4889 51.0111 32.4593 51.026 32.4593C51.0705 32.4297 51.1446 32.4741 51.1891 32.4149C51.1595 32.326 51.0705 32.2668 51.0408 32.1631C51.0111 32.0595 51.0705 32.0743 51.0853 32.0743C51.1569 32.0946 51.2232 32.1304 51.2796 32.179C51.3359 32.2276 51.381 32.2878 51.4116 32.3556ZM52.4648 32.7999C52.6131 33.2293 52.6131 33.2293 52.6724 33.3181C52.7318 33.3774 52.7021 33.407 52.6131 33.407C52.1681 33.4218 52.0346 33.5995 51.9753 33.6587C51.9904 33.5239 52.0152 33.3902 52.0494 33.2589L51.8269 32.9776C51.8566 32.9628 51.8863 32.9776 51.9159 32.9479C51.9011 32.8443 51.8269 32.7851 51.8121 32.6814C51.8121 32.637 51.8121 32.637 51.8863 32.6074C51.8863 32.5926 51.7528 32.2075 51.5154 32.2668C51.4971 32.2499 51.482 32.2298 51.471 32.2075C51.382 32.0891 51.3523 31.941 51.2633 31.8225C51.2336 31.7781 51.2336 31.7781 51.1595 31.7485C51.0853 31.7189 51.0556 31.6893 51.0111 31.5708C50.8331 31.1858 50.8035 31.1118 50.9518 31.0377C51.0387 31.1251 51.0914 31.2407 51.1001 31.3635C51.115 31.4227 51.115 31.4375 51.1298 31.4523C51.204 31.5116 51.2633 31.3191 51.3226 31.3931C51.3756 31.4737 51.411 31.5645 51.4265 31.6596C51.471 31.8522 51.5006 31.9706 51.6044 31.9114H51.6193C51.6934 32.0002 51.7528 32.1039 51.8269 32.1927C51.9308 32.2964 52.0494 32.3852 52.1384 32.4889C52.207 32.5766 52.2666 32.6708 52.3164 32.7703L52.4648 32.7999ZM53.9926 52.1096C53.7816 52.2744 53.5186 52.3585 53.2509 52.3465C53.8146 51.2063 55.0012 47.7264 55.0012 47.7116C55.0309 47.6079 55.2237 44.5723 55.2237 44.5575C54.9864 44.6611 54.9864 44.6611 54.8529 44.6167C54.8084 44.2761 54.6156 43.9651 53.9184 44.5278C53.6665 44.4796 53.4057 44.516 53.1768 44.6315C53.1619 44.6167 51.5748 43.1211 51.9011 42.0845C52.0791 41.5366 52.1384 41.2701 51.8121 40.7814L52.9691 37.8198V37.805C53.0183 37.6697 53.083 37.5405 53.1619 37.42C53.5476 37.6273 53.7108 37.5533 53.8294 37.3607C53.9184 37.2275 54.8826 36.9165 54.9864 37.1979C55.0754 37.4496 54.9716 37.7309 55.1199 37.9679C55.2682 38.2048 55.5946 38.19 55.7429 38.4121C55.8033 38.5 55.8849 38.5714 55.9802 38.6194C56.0336 38.6324 56.0886 38.6374 56.1434 38.6342C56.1434 38.4713 56.1137 38.3085 56.1137 38.1456L56.2472 38.1011C56.4264 38.2684 56.6463 38.3858 56.885 38.4417L56.9295 38.4713C56.967 38.4881 57.0072 38.4982 57.0482 38.501C57.1965 38.2937 57.0482 37.3904 56.8702 37.1831C56.8393 37.2126 56.8044 37.2375 56.7664 37.2571C56.7162 37.1763 56.6715 37.0922 56.6329 37.0054C56.6312 37.0898 56.6055 37.1719 56.5587 37.2423C56.3065 36.8721 56.4252 36.3094 55.8912 36.1021L55.9357 36.2353C55.9161 36.2733 55.8911 36.3082 55.8616 36.339C55.9547 36.529 56.0691 36.7079 56.2027 36.8721C56.0692 36.9313 56.0692 36.9313 56.0247 37.0794C55.4611 36.3982 55.1199 35.5986 54.6304 34.873C54.5859 34.8878 54.5414 34.8878 54.4969 34.9026C54.4969 34.9026 54.7046 35.5838 55.0902 35.7319C55.1496 35.954 55.3721 36.0873 55.4611 36.2946H55.3276C55.5797 36.5611 55.3572 36.8869 55.4314 37.1682C55.3276 37.0498 55.1792 36.9017 55.0754 36.7832C55.1626 36.7482 55.243 36.6981 55.3127 36.6352C55.2831 36.3538 54.3634 35.332 54.2447 35.2728C54.2151 35.3172 54.1854 35.3913 54.1557 35.4357C54.0074 35.4653 53.8591 35.4209 53.7108 35.4505C53.7669 35.6019 53.7922 35.7631 53.7849 35.9244C53.5031 36.2798 53.7701 36.7092 53.5773 37.0794C53.3844 37.0794 53.2213 37.1979 53.0433 37.2275C52.8801 37.0202 52.8356 37.0054 52.6279 37.0054C52.5983 36.9017 52.5834 36.7832 52.5538 36.6796C52.5093 36.65 52.4499 36.6203 52.4054 36.5907C52.3984 36.4996 52.4137 36.4081 52.4499 36.3242C52.3758 36.0724 52.2868 35.7467 52.2274 35.4949C52.2536 35.4483 52.2834 35.4037 52.3164 35.3617C52.5686 35.3469 52.8059 35.3765 53.0581 35.3469C53.2213 34.6361 52.4796 34.488 52.2126 34.0437C52.2274 33.9993 52.2571 33.9549 52.2719 33.9105C52.7466 33.8809 52.6131 33.3181 52.8356 33.0664C52.7763 32.8147 52.9691 32.5777 52.8949 32.326C52.8208 32.0447 52.4944 31.941 52.4351 31.6596C52.4203 31.5565 52.4203 31.4518 52.4351 31.3487C53.1323 32.4149 53.1323 32.4149 53.5328 32.4297C53.55 32.3368 53.5599 32.2427 53.5624 32.1483C53.6311 32.2013 53.7058 32.246 53.7849 32.2816C53.7534 32.1998 53.7286 32.1156 53.7108 32.0298C53.5921 31.8373 53.3548 31.5708 53.3696 31.3487C53.4378 31.414 53.5022 31.4833 53.5624 31.556L53.5476 31.4671C53.3844 31.2154 53.1174 31.0525 52.9839 30.786C53.0631 30.7504 53.1378 30.7057 53.2064 30.6527L53.0878 30.5342C52.9429 30.5755 52.7901 30.5806 52.6428 30.549C52.4796 30.1937 52.1088 29.9715 51.8566 29.6606C51.6786 29.3052 51.5006 28.935 51.1743 28.7573V28.7869C51.3223 28.9871 51.486 29.1752 51.6638 29.3496C51.7139 29.4568 51.7788 29.5565 51.8566 29.6458C52.0494 30.0456 52.2423 30.4306 52.6428 30.5342C52.7119 30.6822 52.7425 30.8452 52.7318 31.0081C53.1619 31.7485 53.1619 31.7485 53.0581 31.9854C52.7318 31.63 52.5538 31.1562 52.1236 30.9044C52.1386 30.9976 52.1386 31.0926 52.1236 31.1858C51.6934 31.1562 49.4685 27.543 49.4833 27.2617C50.0618 27.4542 51.471 28.2538 51.5748 28.6092C51.4412 28.5264 51.3025 28.4522 51.1595 28.3871C51.5748 28.698 51.9308 29.083 52.3906 29.3496C52.2571 29.2163 52.1088 29.1127 51.9753 28.9646C52.2423 29.1571 52.2423 29.1571 52.3313 29.2163L50.9073 27.928C51.1298 28.0909 51.3375 28.2686 51.5748 28.4315C51.3244 28.2053 51.0619 27.9928 50.7886 27.7947L50.759 27.7651C53.3136 29.5985 55.3271 32.0843 56.5884 34.9618C57.4254 36.9857 57.8539 39.1546 57.8492 41.3441C57.8492 41.7291 57.8344 42.1141 57.8047 42.4843C57.775 40.4408 57.2707 39.2562 57.2559 39.2562C57.2519 39.2562 57.2482 39.2577 57.2454 39.2605C57.2426 39.2633 57.241 39.2671 57.241 39.271C57.2262 39.345 57.2262 39.345 57.2707 39.5375L57.4932 40.5001C57.5326 40.7799 57.5574 41.0617 57.5674 41.3441C57.5822 41.4033 57.6267 41.4922 57.6415 41.5514C57.6712 41.7291 57.6564 41.9216 57.686 42.0993C57.7009 42.2178 57.7602 42.3214 57.775 42.4399C57.775 42.4695 57.7899 42.5139 57.7899 42.5436C57.7899 42.5732 57.8047 42.6028 57.8047 42.6472C57.785 42.7195 57.78 42.795 57.7899 42.8693C57.5167 46.2685 56.1895 49.4983 53.9926 52.1096ZM48.4598 47.1785C48.5048 46.9941 48.5099 46.8023 48.4747 46.6158C47.555 46.4529 46.8875 45.7273 45.9975 45.4904C45.33 44.3205 43.0309 42.4547 40.5241 43.2247C40.4351 43.6394 40.4054 43.6542 40.2126 43.6986C39.8418 43.3284 39.8121 43.358 39.2485 43.6542C38.5513 43.432 39.0705 42.6324 38.8183 42.1734C38.492 42.1289 38.1508 42.203 37.8096 42.1141C37.8699 41.7009 37.9692 41.2944 38.1063 40.8999C37.3943 40.3224 36.8603 41.9809 36.2225 41.3293C35.8368 40.9295 35.6737 39.3006 36.3708 39.1229C36.4106 39.0214 36.4656 38.9265 36.534 38.8415C37.513 38.9304 37.513 38.9304 37.5575 38.9008C37.5575 38.8564 37.5723 38.7823 37.5723 38.7379L37.7206 38.6342C38.1211 38.7527 38.5661 38.575 38.9518 38.8119C39.1743 39.9225 39.1743 39.9225 39.471 39.967C39.3375 38.886 39.3375 38.886 40.8801 36.1909L42.2596 35.0803V34.947H42.2744C42.3352 34.9204 42.3946 34.8908 42.4524 34.8582C42.4969 35.0063 42.4672 35.1692 42.5562 35.3024C43.1941 35.1099 43.3424 35.0063 43.5501 34.7545C43.5501 34.7101 43.5352 34.6361 43.5352 34.5916C43.4846 34.5889 43.4347 34.579 43.3869 34.562C43.3147 34.6637 43.2177 34.7452 43.1051 34.799C42.9271 34.7101 42.7639 34.6064 42.5859 34.5324C42.5859 34.488 42.6007 34.4139 42.6007 34.3547C42.5134 34.2726 42.4191 34.1983 42.3189 34.1326C42.454 34.0886 42.5834 34.029 42.7046 33.9549C42.6897 33.9105 42.6749 33.8512 42.6601 33.8068C42.4079 33.7476 42.2596 33.7032 41.6218 34.3103C42.0816 33.6735 42.3189 33.5107 42.3189 33.5107L43.9802 33.2885C43.8912 33.5847 43.7577 33.9993 43.6539 34.2955C44.8554 34.2214 44.8554 34.2214 44.6477 33.792L44.1582 33.8068C44.1731 32.7703 44.1731 32.7703 44.1582 32.7554C44.1434 32.7406 42.4227 30.6675 42.2744 30.6231C42.1409 31.0969 42.1409 31.0969 41.9184 31.1118C41.8379 31.0476 41.7537 30.9883 41.6663 30.9341C41.6218 30.7564 41.5624 30.5046 41.5179 30.3269C41.0878 30.2233 40.7318 29.9271 40.2868 29.8531C40.2338 29.8879 40.1842 29.9276 40.1384 29.9715C40.2126 30.7415 40.2126 30.7415 40.0198 30.9785C40.3461 31.5708 40.3461 31.5708 40.3461 31.9114C39.7973 32.1927 40.1236 32.7851 39.8863 33.1701C39.826 33.1727 39.7662 33.1826 39.7083 33.1997C39.2781 32.8739 39.2781 32.8739 39.3523 32.1187C38.8925 32.1335 38.7441 32.1483 37.7058 31.4523C37.7355 31.3487 37.7651 31.2154 37.7948 31.1118C37.7651 31.0821 37.7058 31.0377 37.6761 31.0081C37.5613 31.0085 37.4485 30.9778 37.3498 30.9192C37.3646 30.7267 37.3646 30.7267 38.848 29.1719C38.848 29.1275 38.8331 29.0682 38.8331 29.0238C38.7886 29.0238 38.7293 29.009 38.6848 29.009C38.6691 28.9601 38.6439 28.9148 38.6106 28.8757C38.9963 28.9202 39.9753 28.4907 39.7379 28.0169C39.7676 27.9132 39.7973 27.7799 39.8269 27.6763C39.752 27.5947 39.6611 27.5292 39.56 27.4838C39.5155 27.4986 39.4561 27.5282 39.4116 27.543C39.382 27.9576 39.0111 28.313 39.0111 28.313C38.9729 28.2768 38.9381 28.2372 38.9073 28.1946C38.9505 28.116 38.9768 28.0294 38.9844 27.9401C38.9921 27.8509 38.981 27.761 38.9518 27.6763C38.8882 27.7694 38.8077 27.8497 38.7145 27.9132C38.7462 27.8179 38.7564 27.7167 38.7441 27.6171L38.6106 27.5282C38.67 27.0099 38.67 27.0099 38.6551 26.8174C38.6403 26.8174 38.6255 26.8026 38.6106 26.8026C38.4104 26.9537 38.2773 27.1769 38.2398 27.4245C38.4178 27.6467 38.4475 27.7355 38.1211 28.0021C38.0766 27.854 38.1063 27.6911 38.047 27.543C37.78 27.5726 37.7058 27.6911 37.7503 28.0317C37.2015 28.3723 37.0087 28.0465 36.9493 27.9132C35.8368 28.1353 35.8368 28.1353 35.7478 28.1205C35.8072 28.0465 35.8962 27.9576 35.9555 27.8836C35.3028 27.4838 35.3028 27.4838 34.932 27.7207C34.9468 27.6319 34.9765 27.4986 34.9913 27.4097C34.487 27.3209 34.1755 27.7947 33.7157 27.8392C33.7388 27.7319 33.7537 27.623 33.7602 27.5134C33.6282 27.3633 33.4514 27.2595 33.2559 27.2172V27.0543C31.9951 26.9507 31.7281 28.2982 30.8232 28.7128C30.8381 28.6684 30.8677 28.6092 30.8826 28.5648C30.7246 28.602 30.5765 28.6729 30.4485 28.7726C30.3205 28.8723 30.2156 28.9984 30.1409 29.1423C30.1931 29.1609 30.2429 29.1858 30.2892 29.2163C30.3337 29.2015 30.3782 29.1719 30.4227 29.1571C30.3041 29.9715 29.3103 29.9715 29.0433 30.6379C29.0878 30.6231 29.1471 30.6231 29.1916 30.6083C29.1273 30.7095 29.0774 30.8191 29.0433 30.9341C29.0844 30.9643 29.1293 30.9892 29.1768 31.0081C29.1768 31.0673 29.1916 31.1414 29.1916 31.1858C28.8416 31.5715 28.4426 31.91 28.0049 32.1927C28.8949 31.8373 29.4289 31.0377 30.1854 30.5046C30.0661 30.6323 29.9751 30.7837 29.9184 30.9489C30.5414 30.6083 30.6156 30.475 30.7046 30.2825C31.2831 30.9044 31.2831 30.9044 31.6836 33.3033C32.1434 33.4514 32.1434 33.4662 32.2621 33.9993C32.1501 34.0513 32.0293 34.0815 31.9061 34.0882C31.3424 37.109 31.3424 37.109 32.0841 37.7161C32.5439 38.1011 32.7515 39.2117 32.7515 39.2117C32.707 39.2266 32.6477 39.2562 32.6032 39.271C33.0037 39.5671 33.1372 40.115 33.5525 40.4112C33.5674 40.3668 33.597 40.3075 33.6119 40.2631C33.152 39.6116 32.8109 38.5306 32.8109 38.5306L32.9147 38.4269C33.2114 38.7971 34.398 41.1516 34.398 41.1664C34.9765 41.6551 35.1248 41.7143 36.979 42.3214H36.9642C37.3795 42.6916 37.8986 42.8545 38.3585 43.1359C38.3585 43.1803 38.3733 43.2543 38.3733 43.2988C38.6551 43.4617 39.4116 43.9651 39.4116 43.9651C39.5454 43.8489 39.6894 43.7448 39.8418 43.6542C40.7169 44.3798 38.9221 45.135 39.5006 46.0235C39.1891 47.1933 40.4796 48.4075 40.5241 48.452C41.6959 49.533 41.6959 49.533 41.2954 51.3543C41.1174 52.2132 41.0284 53.1017 40.7614 53.9458C40.862 53.8849 40.944 53.7979 40.9988 53.694C41.0433 54.4492 40.5834 55.1452 40.8059 55.9152C40.8208 55.9893 41.0284 56.5816 41.7997 56.3891C41.2213 55.8264 41.2658 55.7671 42.0074 54.9527C42.0074 54.9083 41.9926 54.849 41.9926 54.8046C41.9632 54.8032 41.9343 54.7959 41.9079 54.783C41.8814 54.7701 41.8578 54.7519 41.8386 54.7296C41.8194 54.7073 41.805 54.6814 41.7962 54.6533C41.7874 54.6252 41.7844 54.5957 41.7874 54.5664C41.7905 54.5372 41.7994 54.5089 41.8138 54.4832C41.8282 54.4575 41.8476 54.435 41.871 54.4171C41.8944 54.3992 41.9212 54.3863 41.9497 54.3791C41.9783 54.3719 42.008 54.3705 42.0371 54.3752C42.0667 54.2863 42.1112 54.1827 42.1409 54.0938C42.2524 54.0752 42.3558 54.0236 42.4376 53.9458C42.3571 53.883 42.2871 53.8081 42.2299 53.7236C42.2602 53.6825 42.2851 53.6378 42.3041 53.5904C42.4023 53.6327 42.5086 53.6529 42.6156 53.6496C42.8677 53.1757 43.6094 53.2498 43.7726 52.6575L43.6242 52.613V52.4501C43.8764 52.3465 44.1582 52.3465 44.3807 52.1688C44.4486 52.1136 44.513 52.0543 44.5735 51.9911C45.1224 51.4728 45.1224 51.4728 45.4784 50.6288C45.7305 50.0216 46.4722 50.2437 46.843 49.8439L48.4598 47.1785Z" fill="#7B7B7B"/>
<path d="M48.089 26.0177C48.3115 26.1213 48.5488 26.2398 48.801 26.3731L48.8306 26.3879L48.089 26.0177ZM48.5488 28.846C48.5933 28.9052 48.6823 29.0681 48.6675 29.0977C48.6378 29.0977 48.6378 29.0977 48.6378 29.2458C48.6378 29.3347 48.623 29.4828 48.4598 29.4679C48.3263 29.4531 48.2225 29.3347 48.0742 29.3347H47.9407C47.9347 29.3328 47.9293 29.3298 47.9245 29.3258C47.9198 29.3218 47.9159 29.3169 47.9132 29.3114C47.9104 29.3058 47.9088 29.2998 47.9084 29.2936C47.908 29.2875 47.9089 29.2813 47.911 29.2754C47.9407 29.2162 47.9852 29.1274 47.644 29.0089C47.822 29.0089 47.6885 28.846 47.6737 28.8312C47.6292 28.7868 47.5847 28.8016 47.5253 28.8016C47.5026 28.8102 47.4779 28.812 47.4541 28.8067C47.4304 28.8014 47.4088 28.7894 47.3918 28.772C47.377 28.7572 47.3325 28.6535 47.4067 28.6387C47.448 28.6388 47.4888 28.649 47.5253 28.6683C47.4215 28.5795 47.2732 28.461 47.377 28.4462H47.3918C47.4839 28.4989 47.5646 28.5694 47.6292 28.6535C47.6553 28.7009 47.6973 28.7375 47.7478 28.7572C47.7627 28.7572 47.7775 28.772 47.7923 28.7572C47.7923 28.7532 47.7939 28.7495 47.7967 28.7467C47.7994 28.7439 47.8032 28.7424 47.8072 28.7424C47.822 28.7127 47.822 28.6831 47.8368 28.6535C47.8634 28.6295 47.8934 28.6096 47.9258 28.5943C48.0148 28.535 48.2373 28.4018 48.5488 28.846ZM41.8739 24.4924C41.8948 24.4902 41.9158 24.4955 41.9332 24.5072L41.9777 24.5221C42.6525 24.6705 43.3127 24.8787 43.9505 25.144C43.9425 25.143 43.9343 25.1439 43.9266 25.1464C43.9189 25.149 43.9119 25.1532 43.906 25.1588V25.2032C43.9209 25.218 43.9209 25.218 45.0037 25.8104C45.1752 25.9034 45.3225 26.0353 45.4339 26.1954C45.4332 26.203 45.4298 26.2101 45.4244 26.2156C45.419 26.221 45.4118 26.2243 45.4042 26.225C45.7602 26.6248 46.2942 26.8469 46.5315 27.3652C46.5315 27.3652 46.6353 27.9279 46.1755 27.8983C45.9975 27.8835 45.9975 27.8835 45.9678 27.8983C46.0865 28.2833 46.0865 28.2833 45.9975 28.535C45.9233 28.7572 45.6119 28.772 45.597 29.0385C45.5822 29.2014 45.7453 29.2902 45.7602 29.4383C45.775 29.5272 45.6415 29.5716 45.6563 29.6604C45.6693 29.7265 45.6892 29.791 45.7157 29.853C45.8047 30.1195 45.8492 30.2676 45.8195 30.4009C45.7898 30.6082 45.6267 30.5341 45.508 30.4749C45.3894 30.4157 45.3894 30.1787 45.1965 30.2083C44.974 30.238 44.9295 30.238 44.8702 30.1639C44.8554 30.1491 43.8022 28.846 43.6094 28.1796C43.5204 27.8687 43.5055 27.8094 43.639 27.765C43.7725 27.7206 43.6835 27.4689 43.6835 27.454C43.55 27.1875 43.2089 27.2319 43.0309 27.0246C43.2089 26.9654 43.3275 27.1875 43.5055 27.1431C43.4907 27.1135 43.461 27.069 43.0161 26.6248C43.0161 26.6396 43.0012 26.6396 42.9864 26.6544C43.0012 26.8173 43.0012 26.8173 43.0012 26.8469C42.9567 26.8321 42.8232 26.7877 42.8084 26.536C42.7342 25.8548 41.6514 25.218 41.4141 25.3809V25.4253C41.1916 25.3365 41.1619 25.2773 41.1471 25.218C41.0136 25.1736 40.9691 25.144 40.9839 25.07C41.0284 25.0403 41.0284 25.0403 41.1174 25.0403C41.0433 24.9515 40.8801 24.9515 40.8653 24.8034C40.8653 24.7442 40.8949 24.6405 41.0729 24.6257C41.0645 24.574 41.0382 24.5269 40.9987 24.4924H41.8739ZM51.5154 32.2222C51.5303 32.2815 51.5006 32.3407 51.5154 32.3999C51.532 32.4362 51.5518 32.4709 51.5748 32.5036C51.6274 32.6003 51.6626 32.7056 51.6786 32.8146C51.6796 32.8401 51.6745 32.8654 51.6638 32.8886C51.6489 32.933 51.5748 32.933 51.5599 32.9775C51.5451 33.0219 51.5599 33.0811 51.5451 33.1255H51.5303C51.4658 33.0886 51.4101 33.038 51.3671 32.9775C51.355 32.9495 51.3499 32.919 51.3523 32.8886C51.3629 32.7742 51.3529 32.6589 51.3226 32.548C51.3078 32.5184 51.3078 32.5332 51.2929 32.548C51.2781 32.5628 51.2188 32.6369 51.1149 32.4296C51.0704 32.3555 51.1149 32.3259 51.1298 32.3259C51.1743 32.2963 51.2484 32.3407 51.2929 32.2815C51.2633 32.1926 51.1743 32.1334 51.1446 32.0297C51.1149 31.9261 51.1743 31.9409 51.1891 31.9409C51.2607 31.9613 51.327 31.997 51.3834 32.0456C51.4398 32.0942 51.4848 32.1545 51.5154 32.2222ZM52.5834 32.6517C52.7318 33.0811 52.7318 33.0811 52.7911 33.17C52.8504 33.2292 52.8208 33.2588 52.7318 33.2588C52.2868 33.2736 52.1533 33.4513 52.0939 33.5105C52.109 33.3757 52.1338 33.2421 52.1681 33.1107L51.9456 32.8294C51.9753 32.8146 52.0049 32.8294 52.0346 32.7998C52.0198 32.6961 51.9456 32.6369 51.9308 32.5332C51.9308 32.4888 51.9308 32.4888 52.0049 32.4592C52.0049 32.4444 51.8714 32.0594 51.6341 32.1186C51.6158 32.1017 51.6007 32.0816 51.5896 32.0594C51.5006 31.9409 51.4709 31.7928 51.3819 31.6743C51.3523 31.6299 51.3523 31.6299 51.2781 31.6003C51.2039 31.5707 51.1743 31.5411 51.1298 31.4226C50.9518 31.0376 50.9221 30.9636 51.0704 30.8895C51.1574 30.9769 51.21 31.0925 51.2188 31.2153C51.2336 31.2745 51.2336 31.2893 51.2484 31.3041C51.3226 31.3634 51.3819 31.1709 51.4413 31.2449C51.4942 31.3255 51.5296 31.4163 51.5451 31.5115C51.5896 31.704 51.6193 31.8224 51.7231 31.7632H51.7379C51.8121 31.852 51.8714 31.9557 51.9456 32.0445C52.0494 32.1482 52.1681 32.237 52.2571 32.3407C52.3256 32.4284 52.3852 32.5226 52.4351 32.6221L52.5834 32.6517ZM54.0964 51.9762C53.8855 52.1411 53.6224 52.2251 53.3547 52.2131C53.9184 51.0729 55.1051 47.593 55.1051 47.5782C55.1347 47.4745 55.3275 44.4389 55.3275 44.4241C55.0902 44.5277 55.0902 44.5277 54.9567 44.4833C54.9122 44.1427 54.7194 43.8317 54.0222 44.3945C53.7703 44.3462 53.5095 44.3826 53.2806 44.4981C53.2657 44.4833 51.6786 42.9877 52.0049 41.9511C52.1829 41.4032 52.2423 41.1367 51.9159 40.648L53.0729 37.6864V37.6716C53.1221 37.5363 53.1869 37.4071 53.2657 37.2866C53.6514 37.4939 53.8146 37.4199 53.9332 37.2274C54.0222 37.0941 54.9864 36.7831 55.0902 37.0645C55.1792 37.3162 55.0754 37.5976 55.2237 37.8345C55.372 38.0714 55.6984 38.0566 55.8467 38.2787C55.9071 38.3667 55.9887 38.438 56.084 38.486C56.1374 38.499 56.1924 38.504 56.2472 38.5009C56.2472 38.338 56.2175 38.1751 56.2175 38.0122L56.351 37.9678C56.5302 38.135 56.7501 38.2524 56.9889 38.3083L57.0334 38.338C57.0709 38.3547 57.111 38.3648 57.152 38.3676C57.3004 38.1603 57.152 37.257 56.974 37.0497C56.9432 37.0792 56.9082 37.1041 56.8702 37.1237C56.82 37.0429 56.7754 36.9588 56.7367 36.872C56.735 36.9564 56.7093 37.0386 56.6625 37.1089C56.4104 36.7387 56.529 36.176 55.995 35.9687L56.0395 36.1019C56.0199 36.1399 55.995 36.1748 55.9654 36.2056C56.0585 36.3956 56.1729 36.5745 56.3065 36.7387C56.173 36.7979 56.173 36.7979 56.1285 36.946C55.5649 36.2648 55.2237 35.4652 54.7342 34.7396C54.6897 34.7544 54.6452 34.7544 54.6007 34.7692C54.6007 34.7692 54.8084 35.4504 55.1941 35.5985C55.2534 35.8206 55.4759 35.9539 55.5649 36.1612H55.4314C55.6835 36.4277 55.461 36.7535 55.5352 37.0349C55.4314 36.9164 55.2831 36.7683 55.1792 36.6498C55.2665 36.6149 55.3468 36.5647 55.4165 36.5018C55.3869 36.2204 54.4672 35.1987 54.3486 35.1394C54.3189 35.1839 54.2892 35.2579 54.2596 35.3023C54.1112 35.3319 53.9629 35.2875 53.8146 35.3171C53.8708 35.4685 53.896 35.6297 53.8887 35.791C53.6069 36.1464 53.8739 36.5758 53.6811 36.946C53.4882 36.946 53.3251 37.0645 53.1471 37.0941C52.9839 36.8868 52.9394 36.872 52.7318 36.872C52.7021 36.7683 52.6873 36.6498 52.6576 36.5462C52.6131 36.5166 52.5538 36.487 52.5093 36.4573C52.5022 36.3662 52.5175 36.2747 52.5538 36.1908C52.4796 35.9391 52.3906 35.6133 52.3313 35.3615C52.3574 35.3149 52.3872 35.2703 52.4203 35.2283C52.6724 35.2135 52.9097 35.2431 53.1619 35.2135C53.3251 34.5027 52.5834 34.3546 52.3164 33.9104C52.3313 33.8659 52.3609 33.8215 52.3758 33.7771C52.8504 33.7475 52.7169 33.1848 52.9394 32.933C52.8801 32.6813 53.0729 32.4444 52.9987 32.1926C52.9246 31.9113 52.5983 31.8076 52.5389 31.5263C52.5241 31.4231 52.5241 31.3184 52.5389 31.2153C53.2361 32.2815 53.2361 32.2815 53.6366 32.2963C53.6538 32.2034 53.6637 32.1093 53.6662 32.0149C53.7349 32.0679 53.8096 32.1126 53.8887 32.1482C53.8572 32.0664 53.8324 31.9822 53.8146 31.8965C53.6959 31.704 53.4586 31.4374 53.4734 31.2153C53.5416 31.2806 53.606 31.3499 53.6662 31.4226L53.6514 31.3338C53.4882 31.082 53.2212 30.9191 53.0877 30.6526C53.1669 30.617 53.2416 30.5723 53.3102 30.5193L53.1916 30.4009C53.0467 30.4421 52.8939 30.4472 52.7466 30.4157C52.5834 30.0603 52.2126 29.8381 51.9604 29.5272C51.7824 29.1718 51.6044 28.8016 51.2781 28.6239V28.6535C51.4261 28.8537 51.5898 29.0419 51.7676 29.2162C51.8177 29.3234 51.8827 29.4231 51.9604 29.5124C52.1533 29.9122 52.3461 30.2972 52.7466 30.4009C52.8157 30.5488 52.8463 30.7118 52.8356 30.8747C53.2657 31.6151 53.2657 31.6151 53.1619 31.852C52.8356 31.4966 52.6576 31.0228 52.2274 30.7711C52.2424 30.8642 52.2424 30.9592 52.2274 31.0524C51.7973 31.0228 49.5723 27.4096 49.5871 27.1283C50.1656 27.3208 51.5748 28.1204 51.6786 28.4758C51.545 28.393 51.4063 28.3188 51.2633 28.2537C51.6786 28.5647 52.0346 28.9497 52.4944 29.2162C52.3609 29.0829 52.2126 28.9793 52.0791 28.8312C52.3461 29.0237 52.3461 29.0237 52.4351 29.0829L51.0111 27.7946C51.2336 27.9575 51.4413 28.1352 51.6786 28.2981C51.4282 28.0719 51.1658 27.8594 50.8924 27.6614L50.8628 27.6317C53.4174 29.4651 55.431 31.9509 56.6922 34.8285C57.5293 36.8523 57.9577 39.0212 57.953 41.2107C57.953 41.5957 57.9382 41.9807 57.9085 42.3509C57.8788 40.3074 57.3745 39.1228 57.3597 39.1228C57.3577 39.1228 57.3558 39.1232 57.354 39.1239C57.3522 39.1247 57.3506 39.1258 57.3492 39.1271C57.3478 39.1285 57.3467 39.1301 57.346 39.1319C57.3452 39.1337 57.3449 39.1357 57.3449 39.1376C57.33 39.2116 57.33 39.2116 57.3745 39.4041L57.597 40.3667C57.6364 40.6465 57.6612 40.9283 57.6712 41.2107C57.686 41.27 57.7305 41.3588 57.7453 41.418C57.775 41.5957 57.7602 41.7882 57.7898 41.9659C57.8047 42.0844 57.864 42.1881 57.8788 42.3065C57.8788 42.3361 57.8937 42.3806 57.8937 42.4102C57.8937 42.4398 57.9085 42.4694 57.9085 42.5138C57.8888 42.5862 57.8838 42.6617 57.8937 42.736C57.6217 46.1354 56.2943 49.3655 54.0964 51.9762ZM48.5636 47.0303C48.6087 46.8459 48.6137 46.6541 48.5785 46.4676C47.6588 46.3047 46.9913 45.5791 46.0865 45.3422C45.419 44.1723 43.1199 42.3065 40.6131 43.0765C40.5241 43.4912 40.4944 43.506 40.3016 43.5504C39.9308 43.1802 39.9011 43.2098 39.3374 43.506C38.6403 43.2838 39.1594 42.4842 38.9073 42.0252C38.5809 41.9807 38.2398 42.0548 37.8986 41.9659C37.9589 41.5527 38.0582 41.1462 38.1953 40.7517C37.4833 40.1742 36.9493 41.8327 36.3115 41.1811C35.9258 40.7813 35.7627 39.1524 36.4598 38.9747C36.4996 38.8732 36.5546 38.7783 36.623 38.6934C37.602 38.7822 37.602 38.7822 37.6465 38.7526C37.6465 38.7082 37.6613 38.6341 37.6613 38.5897L37.8096 38.486C38.2101 38.6045 38.6551 38.4268 39.0408 38.6637C39.2633 39.7743 39.2633 39.7743 39.5599 39.8188C39.4264 38.7378 39.4264 38.7378 40.9691 36.0427L42.3486 34.9321V34.7988H42.3634C42.4242 34.7722 42.4836 34.7426 42.5414 34.71C42.5859 34.8581 42.5562 35.021 42.6452 35.1542C43.2831 34.9617 43.4314 34.8581 43.639 34.6063C43.639 34.5619 43.6242 34.4879 43.6242 34.4434C43.5736 34.4408 43.5236 34.4308 43.4759 34.4138C43.4037 34.5155 43.3067 34.597 43.1941 34.6508C43.0161 34.5619 42.8529 34.4583 42.6749 34.3842C42.6749 34.3398 42.6897 34.2658 42.6897 34.2065C42.6024 34.1245 42.5081 34.0501 42.4079 33.9844C42.543 33.9404 42.6724 33.8808 42.7936 33.8067C42.7787 33.7623 42.7639 33.703 42.7491 33.6586C42.4969 33.5994 42.3486 33.555 41.7107 34.1621C42.1706 33.5253 42.4079 33.3625 42.4079 33.3625L44.0692 33.1403C43.9802 33.4365 43.8467 33.8511 43.7429 34.1473C44.9444 34.0732 44.9444 34.0732 44.7367 33.6438L44.2472 33.6586C44.262 32.6221 44.262 32.6221 44.2472 32.6072C44.2769 32.6072 42.5562 30.5341 42.4079 30.5045C42.2744 30.9784 42.2744 30.9784 42.0519 30.9932C41.9714 30.929 41.8872 30.8697 41.7997 30.8155C41.7552 30.6378 41.6959 30.386 41.6514 30.2083C41.2212 30.1047 40.8653 29.8085 40.4203 29.7345C40.3673 29.7694 40.3176 29.809 40.2719 29.853C40.3461 30.623 40.3461 30.623 40.1533 30.8599C40.4796 31.4522 40.4796 31.4522 40.4796 31.7928C39.9308 32.0742 40.2571 32.6665 40.0198 33.0515C39.9594 33.0541 39.8997 33.064 39.8418 33.0811C39.4116 32.7553 39.4116 32.7553 39.4858 32.0001C39.0259 32.0149 38.8776 32.0297 37.8393 31.3338C37.869 31.2301 37.8986 31.0968 37.9283 30.9932C37.8986 30.9636 37.8393 30.9191 37.8096 30.8895C37.6948 30.8899 37.582 30.8592 37.4833 30.8007C37.4981 30.6082 37.4981 30.6082 38.9814 29.0533C38.9814 29.0089 38.9666 28.9497 38.9666 28.9052C38.9221 28.9052 38.8628 28.8904 38.8183 28.8904C38.8026 28.8415 38.7774 28.7962 38.7441 28.7572C39.1298 28.8016 40.1088 28.3721 39.8714 27.8983C39.9011 27.7946 39.9308 27.6614 39.9604 27.5577C39.8855 27.4761 39.7946 27.4106 39.6934 27.3652C39.6489 27.38 39.5896 27.4096 39.5451 27.4244C39.5154 27.8391 39.1446 28.1945 39.1446 28.1945C39.1064 28.1583 39.0716 28.1186 39.0408 28.076C39.084 27.9975 39.1102 27.9108 39.1179 27.8215C39.1256 27.7323 39.1145 27.6424 39.0853 27.5577C39.0217 27.6508 38.9412 27.7312 38.8479 27.7946C38.8797 27.6993 38.8899 27.5982 38.8776 27.4985L38.7441 27.4096C38.8034 26.8913 38.8034 26.8913 38.7886 26.6988C38.7738 26.6988 38.7589 26.684 38.7441 26.684C38.5439 26.8351 38.4108 27.0583 38.3733 27.306C38.5513 27.5281 38.5809 27.6169 38.2546 27.8835C38.2101 27.7354 38.2398 27.5725 38.1805 27.4244C37.9135 27.454 37.8393 27.5725 37.8838 27.9131C37.335 28.2537 37.1421 27.9279 37.0828 27.7946C35.9703 28.0168 35.9703 28.0168 35.8813 28.0019C35.9407 27.9279 36.0297 27.8391 36.089 27.765C35.4363 27.3652 35.4363 27.3652 35.0655 27.6021C35.0803 27.5133 35.11 27.38 35.1248 27.2912C34.6205 27.2023 34.309 27.6762 33.8492 27.7206C33.8723 27.6133 33.8872 27.5044 33.8937 27.3948C33.7617 27.2447 33.5849 27.1409 33.3894 27.0987V26.9358C32.1285 26.8321 31.8615 28.1796 30.9567 28.5943C30.9716 28.5498 31.0012 28.4906 31.0161 28.4462C30.8581 28.4835 30.71 28.5544 30.582 28.654C30.454 28.7537 30.3491 28.8798 30.2744 29.0237C30.3266 29.0424 30.3764 29.0672 30.4227 29.0977C30.4672 29.0829 30.5117 29.0533 30.5562 29.0385C30.4376 29.853 29.4437 29.853 29.1767 30.5193C29.2212 30.5045 29.2806 30.5045 29.3251 30.4897C29.2608 30.5909 29.2109 30.7006 29.1767 30.8155C29.2179 30.8457 29.2628 30.8706 29.3102 30.8895C29.3102 30.9487 29.3251 31.0228 29.3251 31.0672C28.975 31.4529 28.5761 31.7914 28.1384 32.0742C29.0284 31.7188 29.5624 30.9191 30.3189 30.386C30.1995 30.5137 30.1086 30.6651 30.0519 30.8303C30.6749 30.4897 30.7491 30.3564 30.8381 30.1639C31.4165 30.7859 31.4165 30.7859 31.817 33.1848C32.2769 33.3328 32.2769 33.3477 32.3955 33.8807C32.2836 33.9327 32.1628 33.9629 32.0395 33.9696C31.4759 36.9904 31.4759 36.9904 32.2175 37.5976C32.6774 37.9826 32.885 39.0932 32.885 39.0932C32.8405 39.108 32.7812 39.1376 32.7367 39.1524C33.1372 39.4486 33.2707 39.9965 33.686 40.2926C33.7009 40.2482 33.7305 40.189 33.7454 40.1445C33.2855 39.493 32.9444 38.412 32.9444 38.412L33.0482 38.3083C33.3449 38.6786 34.5315 41.033 34.5315 41.0478C35.11 41.5365 35.2583 41.5957 37.1125 42.2029H37.0976C37.513 42.5731 38.0321 42.736 38.492 43.0173C38.492 43.0617 38.5068 43.1358 38.5068 43.1802C38.7886 43.3431 39.5451 43.8466 39.5451 43.8466C39.6789 43.7303 39.8229 43.6262 39.9753 43.5356C40.8504 44.2612 39.0556 45.0164 39.6341 45.9049C39.3226 47.0747 40.6131 48.289 40.6724 48.3334C41.8442 49.4144 41.8442 49.4144 41.4437 51.2358C41.2657 52.0946 41.1767 52.9831 40.9097 53.8272C41.0103 53.7664 41.0924 53.6793 41.1471 53.5754C41.1916 54.3307 40.7318 55.0266 40.9543 55.7966C40.9691 55.8707 41.1767 56.463 41.9481 56.2705C41.3696 55.7078 41.4141 55.6486 42.1557 54.8341C42.1557 54.7897 42.1409 54.7305 42.1409 54.686C42.1115 54.6847 42.0826 54.6773 42.0562 54.6644C42.0297 54.6515 42.0062 54.6333 41.987 54.611C41.9677 54.5887 41.9533 54.5628 41.9445 54.5347C41.9357 54.5066 41.9327 54.4771 41.9358 54.4478C41.9388 54.4186 41.9478 54.3903 41.9621 54.3646C41.9765 54.3389 41.996 54.3165 42.0193 54.2986C42.0427 54.2807 42.0695 54.2677 42.098 54.2605C42.1266 54.2533 42.1563 54.252 42.1854 54.2566C42.2151 54.1678 42.2596 54.0641 42.2892 53.9753C42.4007 53.9566 42.5041 53.905 42.5859 53.8272C42.5055 53.7644 42.4354 53.6895 42.3782 53.6051C42.4085 53.564 42.4335 53.5192 42.4524 53.4718C42.5506 53.5141 42.657 53.5343 42.7639 53.531C43.0161 53.0572 43.7577 53.1312 43.9209 52.5389C43.8764 52.5241 43.817 52.5093 43.7725 52.4945V52.3316C44.0247 52.2279 44.3065 52.2279 44.529 52.0502C44.5969 51.995 44.6613 51.9357 44.7219 51.8725C45.2707 51.3542 45.2707 51.3542 45.6267 50.5102C45.8788 49.903 46.6205 50.1252 46.9913 49.7253L48.5636 47.0303Z" fill="#E1E1E1"/>
<path d="M77.6218 57.2923C74.3665 64.3448 69.1545 70.3179 62.6032 74.5039C56.0519 78.69 48.4359 80.9136 40.6576 80.9112C18.2151 80.9112 0 62.7861 0 40.4556C0 18.125 18.2151 1.35187e-06 40.6576 1.35187e-06C48.774 -0.00208864 56.7055 2.41922 63.4327 6.95267C70.1598 11.4861 75.375 17.9245 78.4079 25.4402H61.4833C59.0946 22.1571 55.9605 19.4858 52.3379 17.6454C48.7153 15.805 44.7074 14.8479 40.6428 14.8525C26.4475 14.8525 14.9221 26.3287 14.9221 40.4556C14.9221 54.5825 26.4475 66.0587 40.6428 66.0587C44.3117 66.064 47.9392 65.2844 51.2808 63.7722C54.6225 62.26 57.6007 60.0504 60.0148 57.2923H77.6218Z" fill="#193664"/>
<path d="M58.2645 54.1086L64.005 41.4773L58.5909 29.1718H57.6267V28.1353H65.0284V29.1718H62.9221L66.2596 37.7457L69.6267 29.1718H67.6539V28.1353H76.2423V29.1718H73.9135L68.4994 41.4773L74.2398 54.1086H76.2423V55.1451H67.6539V54.1086H69.8195L66.2596 44.9868L62.6848 54.1086H65.0284V55.1451H57.6267V54.1086H58.2645Z" fill="#193664"/>
<path d="M86.8183 54.1974C91.5797 54.1974 93.9629 51.9713 93.9678 47.519C93.9678 45.5051 93.4339 43.9798 92.351 42.9433C91.2682 41.9067 89.5476 41.3736 87.1743 41.3736H83.9555V51.0285C83.9555 51.9466 84.0297 52.6129 84.178 53.0424C84.243 53.2416 84.3492 53.4249 84.4898 53.5805C84.6303 53.7361 84.802 53.8605 84.9938 53.9457C85.4091 54.1085 86.0025 54.1974 86.8183 54.1974ZM86.7886 28.8312C85.9975 28.8312 85.4042 28.9201 85.0086 29.0978C84.8109 29.1856 84.6351 29.3162 84.494 29.4801C84.353 29.644 84.2501 29.8371 84.1928 30.0455C84.0445 30.5045 83.9703 31.1857 83.9703 32.1038V40.7221H86.5365C88.6279 40.7221 90.0816 40.1594 90.9122 39.0191C91.7429 37.8789 92.1582 36.3833 92.1582 34.5027C92.1582 32.5925 91.7429 31.1709 90.8974 30.238C90.0519 29.3051 88.6724 28.8312 86.7886 28.8312ZM89.9926 40.8109C92.796 41.1959 94.7985 41.9956 95.9851 43.2394C96.568 43.8215 97.0273 44.5149 97.3356 45.2782C97.644 46.0415 97.7951 46.859 97.78 47.6819C97.8056 49.0477 97.4179 50.3895 96.6675 51.5319C95.9258 52.6574 94.8727 53.5162 93.4932 54.1382C92.1137 54.7601 90.4821 55.0711 88.5983 55.0711C87.9159 55.0711 87.3226 55.0563 86.8479 55.0266C85.2163 54.9822 83.6143 54.9526 82.0272 54.9526C79.9357 54.9526 78.3634 54.997 77.2954 55.0711V54.3011C78.2151 54.2566 78.8826 54.153 79.2979 53.9901C79.4996 53.9215 79.6825 53.8068 79.8318 53.6551C79.9812 53.5034 80.093 53.3189 80.1582 53.1164C80.3065 52.687 80.3807 51.991 80.3807 51.0137V32.1038C80.3807 31.1413 80.3065 30.4453 80.1582 30.0011C80.093 29.7985 79.9812 29.614 79.8318 29.4623C79.6825 29.3106 79.4996 29.1959 79.2979 29.1274C78.8826 28.9793 78.2151 28.8756 77.2954 28.8164V28.0464C78.3634 28.1204 79.9209 28.1649 81.953 28.1649L86.0766 28.1204C86.5711 28.0908 87.1199 28.076 87.7231 28.076C90.3189 28.076 92.3214 28.6239 93.7009 29.7197C95.0803 30.8155 95.7775 32.2667 95.7775 34.0733C95.7917 35.5182 95.2983 36.9223 94.3832 38.0418C93.4487 39.2117 91.9802 40.1001 89.9777 40.7073V40.8109H89.9926Z" fill="#14A5C6"/>
<path d="M110.892 28.8312C110.101 28.8312 109.508 28.9201 109.112 29.0978C108.915 29.1856 108.739 29.3162 108.598 29.4801C108.457 29.644 108.354 29.8371 108.297 30.0455C108.148 30.5045 108.074 31.1857 108.074 32.1038V41.4921H110.64C113.162 41.4921 114.897 40.9294 115.832 39.8188C116.766 38.7082 117.241 37.1533 117.241 35.1691C117.241 33.0811 116.752 31.5115 115.758 30.4453C114.764 29.3791 113.132 28.8312 110.892 28.8312ZM125.028 53.1608C124.45 54.0197 123.857 54.6416 123.278 55.0266C122.7 55.4117 121.913 55.6042 120.949 55.6042C119.911 55.6042 119.051 55.2932 118.368 54.6861C117.686 54.0789 117.197 53.0128 116.855 51.4875L116.01 47.667C115.783 46.6343 115.496 45.6157 115.15 44.6166C114.912 43.9459 114.497 43.3521 113.948 42.8989C113.414 42.4694 112.658 42.2473 111.693 42.2473H108.059V51.0137C108.059 51.9762 108.133 52.6722 108.282 53.1164C108.345 53.3201 108.456 53.5058 108.605 53.6578C108.755 53.8098 108.939 53.9238 109.142 53.9901C109.557 54.1382 110.225 54.2418 111.145 54.3011V55.0711C109.973 54.997 108.356 54.9526 106.294 54.9526C104.099 54.9526 102.467 54.997 101.399 55.0711V54.3011C102.319 54.2566 102.986 54.153 103.402 53.9901C103.603 53.9215 103.786 53.8068 103.936 53.6551C104.085 53.5034 104.197 53.3189 104.262 53.1164C104.41 52.687 104.485 51.991 104.485 51.0137V32.1038C104.485 31.1413 104.41 30.4453 104.262 30.0011C104.197 29.7985 104.085 29.614 103.936 29.4623C103.786 29.3106 103.603 29.1959 103.402 29.1274C102.986 28.9793 102.319 28.8756 101.399 28.8164V28.0464C102.467 28.1204 104.025 28.1649 106.057 28.1649L110.18 28.1204C110.675 28.0908 111.224 28.076 111.827 28.076C114.779 28.076 117.048 28.6979 118.65 29.927C120.252 31.1561 121.038 32.7553 121.038 34.71C121.027 35.7476 120.784 36.7696 120.326 37.7012C119.852 38.7082 119.065 39.6115 117.953 40.4111C116.841 41.2107 115.402 41.7586 113.622 42.0252L114.082 42.0992C115.758 42.3806 116.989 42.884 117.745 43.6245C118.502 44.3649 119.065 45.5347 119.421 47.134L120.371 51.0285C120.623 52.1983 120.89 53.0128 121.172 53.4718C121.282 53.6785 121.446 53.8512 121.648 53.9713C121.849 54.0913 122.079 54.1542 122.314 54.153C122.703 54.1652 123.085 54.0452 123.397 53.8124C123.782 53.4895 124.121 53.1159 124.405 52.7018L125.028 53.1608Z" fill="#14A5C6"/>
<path d="M136.48 28.8312C135.56 28.8756 134.892 28.9793 134.477 29.1422C134.275 29.2107 134.093 29.3255 133.943 29.4772C133.794 29.6289 133.682 29.8133 133.617 30.0159C133.468 30.4453 133.394 31.1413 133.394 32.1186V51.0285C133.394 51.991 133.468 52.687 133.617 53.1312C133.682 53.3337 133.794 53.5182 133.943 53.6699C134.093 53.8216 134.275 53.9363 134.477 54.0049C134.892 54.153 135.56 54.2566 136.48 54.3159V55.0859C135.308 55.0118 133.691 54.9674 131.629 54.9674C129.434 54.9674 127.802 55.0118 126.734 55.0859V54.3159C127.654 54.2714 128.321 54.1678 128.737 54.0049C128.938 53.9363 129.121 53.8216 129.271 53.6699C129.42 53.5182 129.532 53.3337 129.597 53.1312C129.745 52.7018 129.82 52.0058 129.82 51.0285V32.1038C129.82 31.1413 129.745 30.4453 129.597 30.0011C129.532 29.7985 129.42 29.614 129.271 29.4623C129.121 29.3106 128.938 29.1959 128.737 29.1274C128.321 28.9793 127.654 28.8756 126.734 28.8164V28.0464C127.802 28.1204 129.434 28.1649 131.629 28.1649C133.661 28.1649 135.278 28.1204 136.48 28.0464V28.8312Z" fill="#14A5C6"/>
<path d="M149.74 28.7572C148.954 28.7572 148.361 28.846 147.96 29.0237C147.763 29.1116 147.587 29.2422 147.446 29.406C147.305 29.5699 147.202 29.763 147.145 29.9714C146.996 30.4305 146.922 31.1117 146.922 32.0298V51.1025C146.922 52.0206 146.996 52.7018 147.145 53.1608C147.204 53.3681 147.308 53.56 147.449 53.7235C147.59 53.8871 147.764 54.0184 147.96 54.1085C148.361 54.2862 148.954 54.3751 149.77 54.3751C152.47 54.3751 154.591 53.8864 156.148 52.9091C157.706 51.9318 158.789 50.4954 159.412 48.6148C160.035 46.7341 160.346 44.3352 160.346 41.4032C160.346 38.4713 160.005 36.102 159.308 34.251C158.611 32.4 157.513 31.0228 155.97 30.1195C154.428 29.2162 152.366 28.7572 149.74 28.7572ZM150.69 28.0612C155.199 28.0612 158.566 29.1866 160.821 31.4374C163.075 33.6883 164.188 36.9608 164.188 41.2552C164.188 44.0193 163.639 46.4478 162.541 48.5407C161.476 50.5909 159.817 52.2731 157.78 53.3681C155.703 54.4936 153.226 55.0711 150.349 55.0711L148.138 55.0266C146.714 54.9822 145.661 54.9526 145.009 54.9526C142.917 54.9526 141.345 54.997 140.277 55.0711V54.3011C141.197 54.2566 141.864 54.153 142.279 53.9901C142.481 53.9215 142.664 53.8068 142.813 53.6551C142.963 53.5034 143.074 53.3189 143.14 53.1164C143.288 52.687 143.362 51.991 143.362 51.0137V32.1038C143.362 31.1413 143.288 30.4453 143.14 30.0011C143.074 29.7985 142.963 29.614 142.813 29.4623C142.664 29.3106 142.481 29.1959 142.279 29.1274C141.864 28.9793 141.197 28.8756 140.277 28.8164V28.0464C141.167 28.1204 142.398 28.1649 143.985 28.1649L147.234 28.1204C148.954 28.0908 150.111 28.0612 150.69 28.0612Z" fill="#14A5C6"/>
<path d="M178.502 27.5281C180 27.5281 181.246 27.7354 182.21 28.15C183.329 28.6577 184.392 29.2779 185.384 30.001C185.711 30.2528 185.963 30.386 186.141 30.386C186.63 30.386 186.942 29.616 187.09 28.0612H187.965C187.867 29.7197 187.817 32.6418 187.817 36.8275H186.942C186.764 35.7039 186.521 34.5915 186.215 33.4957C185.977 32.6546 185.574 31.8693 185.028 31.1857C184.254 30.2444 183.268 29.4986 182.151 29.0089C180.981 28.48 179.712 28.2073 178.428 28.2092C176.797 28.1916 175.217 28.7771 173.993 29.8529C172.717 30.9487 171.738 32.5036 171.056 34.5175C170.373 36.5314 170.017 38.9007 170.017 41.5957C170.017 46.1714 170.749 49.523 172.213 51.6504C173.676 53.7778 175.975 54.839 179.11 54.8341C180.638 54.8341 181.958 54.4343 183.085 53.6495C183.545 53.3385 183.842 53.0423 183.99 52.7462C184.142 52.365 184.213 51.9566 184.198 51.5467V47.8891C184.198 46.823 184.094 46.0529 183.886 45.5643C183.791 45.3312 183.647 45.1217 183.462 44.9503C183.278 44.7789 183.058 44.6499 182.818 44.5721C182.314 44.3944 181.483 44.276 180.341 44.2316V43.4615C181.661 43.5356 183.456 43.58 185.726 43.58C187.461 43.58 188.781 43.5356 189.701 43.4615V44.2316C189.122 44.276 188.692 44.3796 188.425 44.5425C188.158 44.7054 187.98 44.9868 187.891 45.4162C187.802 45.8456 187.758 46.5416 187.758 47.5189V55.071H186.986C186.957 54.5695 186.852 54.0753 186.675 53.605C186.497 53.1312 186.26 52.8943 185.948 52.8943C185.788 52.8985 185.631 52.939 185.488 53.0127C185.209 53.172 184.942 53.3502 184.687 53.5458C183.85 54.2018 182.914 54.7216 181.913 55.0858C180.888 55.4411 179.809 55.6164 178.724 55.6041C176.099 55.6041 173.859 55.071 171.975 53.9901C170.101 52.9063 168.601 51.2796 167.674 49.3255C166.68 47.2968 166.19 44.8683 166.19 42.04C166.19 39.1376 166.719 36.5906 167.778 34.399C168.831 32.1926 170.299 30.5045 172.153 29.3199C174.007 28.1352 176.143 27.5281 178.502 27.5281Z" fill="#14A5C6"/>
<path d="M211.787 50.1844C211.787 51.6356 211.876 53.2645 212.054 55.0711C210.319 54.997 207.412 54.9526 203.303 54.9526C198.408 54.9526 194.714 54.9921 192.223 55.0711V54.3011C193.142 54.2566 193.81 54.153 194.225 53.9901C194.427 53.9215 194.61 53.8068 194.759 53.6551C194.908 53.5034 195.02 53.3189 195.085 53.1164C195.234 52.687 195.308 51.991 195.308 51.0137V32.1038C195.308 31.1413 195.234 30.4453 195.085 30.0011C195.02 29.7985 194.908 29.614 194.759 29.4623C194.61 29.3106 194.427 29.1959 194.225 29.1274C193.81 28.9793 193.142 28.8756 192.223 28.8164V28.0464C194.714 28.1204 198.408 28.1599 203.303 28.1649C207.041 28.1649 209.711 28.1204 211.283 28.0464C211.116 29.5413 211.027 31.0439 211.016 32.548C211.008 33.3395 211.047 34.1307 211.135 34.9173H210.26C210.082 33.2588 209.859 32.0446 209.577 31.2301C209.295 30.4157 208.821 29.8382 208.168 29.4828C207.515 29.1274 206.507 28.9349 205.157 28.9349H201.983C201.063 28.9349 200.396 29.0089 199.98 29.1422C199.778 29.2054 199.594 29.3165 199.444 29.4661C199.295 29.6157 199.183 29.7992 199.12 30.0011C198.972 30.4305 198.897 31.1265 198.897 32.1038V41.1071H201.419C202.309 41.1071 202.991 40.8998 203.481 40.4851C203.948 40.1 204.289 39.5843 204.46 39.0043C204.649 38.295 204.783 37.5722 204.86 36.8424L204.979 36.0723H205.854C205.78 37.1385 205.735 38.338 205.735 39.6559V41.4921C205.735 42.7952 205.81 44.587 205.958 46.9118H205.083C205.053 46.7341 204.979 46.1122 204.86 45.0608C204.742 44.0095 204.386 43.2098 203.807 42.6767C203.229 42.1436 202.443 41.8771 201.419 41.8771H198.897V51.0285C198.897 51.991 198.972 52.687 199.12 53.1312C199.183 53.3331 199.295 53.5166 199.444 53.6662C199.594 53.8157 199.778 53.9269 199.98 53.9901C200.396 54.1234 201.063 54.1974 201.983 54.1974H204.771C206.344 54.1974 207.56 53.9901 208.376 53.5755C209.207 53.1499 209.852 52.4327 210.185 51.5616C210.571 50.6287 210.853 49.2663 211.031 47.4597H211.906C211.811 48.3647 211.771 49.2746 211.787 50.1844Z" fill="#14A5C6"/>
<path d="M247.194 28.0613C247.016 29.8679 246.927 31.4967 246.927 32.9479C246.927 34.2214 246.972 35.258 247.046 36.0724H246.171C245.963 34.1178 245.711 32.6518 245.399 31.7041C245.088 30.7563 244.554 30.0456 243.797 29.6013C243.041 29.1571 241.854 28.935 240.282 28.935H238.22V50.6435C238.22 51.7097 238.324 52.4797 238.532 52.9684C238.626 53.2015 238.771 53.411 238.956 53.5824C239.14 53.7538 239.36 53.8828 239.6 53.9606C240.104 54.1382 240.934 54.2567 242.077 54.3011V55.0712C240.756 54.9971 238.888 54.9527 236.455 54.9527C233.904 54.9527 232.02 54.9971 230.803 55.0712V54.3011C231.946 54.2567 232.776 54.1382 233.281 53.9606C233.52 53.8828 233.74 53.7538 233.925 53.5824C234.109 53.411 234.254 53.2015 234.349 52.9684C234.556 52.4797 234.66 51.7097 234.66 50.6435V28.9498H232.598C231.026 28.9498 229.854 29.1719 229.083 29.6161C228.298 30.0855 227.724 30.8385 227.481 31.7189C227.169 32.6666 226.917 34.1326 226.71 36.0872H225.834C225.909 35.2728 225.953 34.2362 225.953 32.9627C225.953 31.5116 225.864 29.8827 225.686 28.0761C227.807 28.1501 231.397 28.1896 236.455 28.1946C241.498 28.1797 245.078 28.1353 247.194 28.0613Z" fill="#1A3563"/>
<path d="M269.281 50.1844C269.281 51.6356 269.37 53.2645 269.548 55.0711C267.812 54.997 264.905 54.9526 260.796 54.9526C255.901 54.9526 252.208 54.9921 249.716 55.0711V54.3011C250.635 54.2566 251.303 54.153 251.718 53.9901C251.92 53.9215 252.103 53.8068 252.252 53.6551C252.402 53.5034 252.513 53.3189 252.578 53.1164C252.727 52.687 252.801 51.991 252.801 51.0137V32.1038C252.801 31.1413 252.727 30.4453 252.578 30.0011C252.513 29.7985 252.402 29.614 252.252 29.4623C252.103 29.3106 251.92 29.1959 251.718 29.1274C251.303 28.9793 250.635 28.8756 249.716 28.8164V28.0464C252.208 28.1204 255.901 28.1599 260.796 28.1649C264.534 28.1649 267.204 28.1204 268.776 28.0464C268.609 29.5413 268.52 31.0439 268.509 32.548C268.501 33.3395 268.541 34.1307 268.628 34.9173H267.753C267.575 33.2588 267.352 32.0446 267.07 31.2301C266.789 30.4157 266.314 29.8382 265.661 29.4828C265.009 29.1274 264 28.9349 262.65 28.9349H259.476C258.556 28.9349 257.889 29.0089 257.473 29.1422C257.271 29.2054 257.087 29.3165 256.938 29.4661C256.788 29.6157 256.676 29.7992 256.613 30.0011C256.465 30.4305 256.391 31.1265 256.391 32.1038V41.1071H258.912C259.802 41.1071 260.485 40.8998 260.974 40.4851C261.436 40.0958 261.776 39.5816 261.953 39.0043C262.142 38.295 262.276 37.5722 262.354 36.8424L262.472 36.0723H263.347C263.273 37.1385 263.229 38.338 263.229 39.6559V41.4921C263.229 42.7952 263.303 44.587 263.451 46.9118H262.576C262.546 46.7341 262.472 46.1122 262.354 45.0608C262.235 44.0095 261.879 43.2098 261.3 42.6767C260.722 42.1436 259.936 41.8771 258.912 41.8771H256.391V51.0285C256.391 51.991 256.465 52.687 256.613 53.1312C256.676 53.3331 256.788 53.5166 256.938 53.6662C257.087 53.8157 257.271 53.9269 257.473 53.9901C257.889 54.1234 258.556 54.1974 259.476 54.1974H262.265C263.837 54.1974 265.053 53.9901 265.869 53.5755C266.7 53.1499 267.345 52.4327 267.679 51.5616C268.064 50.6287 268.346 49.2663 268.524 47.4597H269.399C269.304 48.3647 269.264 49.2746 269.281 50.1844Z" fill="#1A3563"/>
<path d="M284.811 27.5281C286.339 27.5281 287.644 27.7502 288.712 28.1797C289.839 28.6378 290.893 29.2563 291.842 30.0159C292.124 30.238 292.361 30.3565 292.569 30.3565C293.073 30.3565 293.414 29.5864 293.562 28.0612H294.438C294.334 29.7197 294.284 32.6418 294.289 36.8276H293.414C293.132 35.1691 292.88 33.9844 292.658 33.2588C292.416 32.5001 292.028 31.7958 291.515 31.1857C290.753 30.1991 289.746 29.4283 288.593 28.9497C287.374 28.4518 286.069 28.2001 284.752 28.2093C283.151 28.1872 281.602 28.775 280.42 29.853C279.189 30.9488 278.225 32.5036 277.543 34.5175C276.86 36.5314 276.504 38.9155 276.504 41.6254C276.504 44.3945 276.875 46.7786 277.617 48.7629C278.358 50.7471 279.382 52.2576 280.687 53.2793C281.945 54.2946 283.519 54.8394 285.137 54.8194C286.409 54.8221 287.669 54.5756 288.845 54.0938C289.979 53.6537 290.962 52.8982 291.679 51.917C292.175 51.2194 292.551 50.4435 292.791 49.6217C293.014 48.8073 293.236 47.5634 293.444 45.8901H294.319C294.319 50.2585 294.368 53.3089 294.467 55.0415H293.592C293.518 54.227 293.414 53.6495 293.266 53.3089C293.117 52.9683 292.925 52.7906 292.672 52.7906C292.465 52.7906 292.198 52.8943 291.871 53.1016C290.853 53.8495 289.747 54.4711 288.578 54.9526C287.54 55.3673 286.279 55.5746 284.796 55.5746C282.378 55.5746 280.257 55.0267 278.433 53.9309C276.608 52.8351 275.194 51.2506 274.19 49.1775C273.182 47.1044 272.677 44.6314 272.677 41.7587C272.677 38.9599 273.192 36.4821 274.22 34.325C275.248 32.168 276.687 30.4897 278.536 29.2903C280.415 28.1141 282.593 27.5023 284.811 27.5281Z" fill="#1A3563"/>
<path d="M323.273 28.8312C322.354 28.8756 321.686 28.9793 321.271 29.1422C321.069 29.2107 320.886 29.3255 320.737 29.4772C320.587 29.6289 320.476 29.8133 320.41 30.0159C320.262 30.4453 320.188 31.1413 320.188 32.1186V51.0285C320.188 51.991 320.262 52.687 320.41 53.1312C320.476 53.3337 320.587 53.5182 320.737 53.6699C320.886 53.8216 321.069 53.9363 321.271 54.0049C321.686 54.153 322.354 54.2566 323.273 54.3159V55.0859C322.205 55.0118 320.574 54.9674 318.378 54.9674C316.316 54.9674 314.7 55.0118 313.528 55.0859V54.3159C314.447 54.2714 315.115 54.1678 315.53 54.0049C315.732 53.9363 315.915 53.8216 316.064 53.6699C316.214 53.5182 316.325 53.3337 316.391 53.1312C316.539 52.7018 316.613 52.0058 316.613 51.0285V41.8771H304.198V51.0285C304.198 51.991 304.272 52.687 304.42 53.1312C304.483 53.3349 304.594 53.5206 304.744 53.6726C304.894 53.8246 305.078 53.9386 305.281 54.0049C305.696 54.153 306.363 54.2566 307.283 54.3159V55.0859C306.111 55.0118 304.494 54.9674 302.433 54.9674C300.237 54.9674 298.606 55.0118 297.538 55.0859V54.3159C298.457 54.2714 299.125 54.1678 299.54 54.0049C299.742 53.9363 299.925 53.8216 300.074 53.6699C300.224 53.5182 300.335 53.3337 300.401 53.1312C300.549 52.7018 300.623 52.0058 300.623 51.0285V32.1038C300.623 31.1413 300.549 30.4453 300.401 30.0011C300.335 29.7985 300.224 29.614 300.074 29.4623C299.925 29.3106 299.742 29.1959 299.54 29.1274C299.125 28.9793 298.457 28.8756 297.538 28.8164V28.0464C298.606 28.1204 300.237 28.1649 302.433 28.1649C304.465 28.1649 306.082 28.1204 307.283 28.0464V28.8164C306.363 28.8608 305.696 28.9645 305.281 29.1274C305.079 29.1959 304.896 29.3106 304.747 29.4623C304.597 29.614 304.486 29.7985 304.42 30.0011C304.272 30.4305 304.198 31.1265 304.198 32.1038V41.1071H316.613V32.1038C316.613 31.1413 316.539 30.4453 316.391 30.0011C316.325 29.7985 316.214 29.614 316.064 29.4623C315.915 29.3106 315.732 29.1959 315.53 29.1274C315.115 28.9793 314.447 28.8756 313.528 28.8164V28.0464C314.7 28.1204 316.316 28.1649 318.378 28.1649C320.574 28.1649 322.205 28.1204 323.273 28.0464V28.8312Z" fill="#1A3563"/>
<path d="M348.015 28.8312C347.125 28.8756 346.457 29.0089 346.027 29.231C345.815 29.3384 345.628 29.4887 345.477 29.6722C345.327 29.8558 345.216 30.0686 345.152 30.2972C345.004 30.7859 344.93 31.5263 344.93 32.4888V55.2636H344.054L327.99 30.5045V50.6435C327.99 51.6356 328.079 52.376 328.242 52.8499C328.32 53.0854 328.447 53.3013 328.616 53.4828C328.785 53.6643 328.992 53.8071 329.221 53.9012C329.711 54.1234 330.452 54.2566 331.476 54.3011V55.0711C330.556 54.997 329.266 54.9526 327.575 54.9526C326.047 54.9526 324.86 54.997 324.015 55.0711V54.3011C324.905 54.2566 325.572 54.1234 326.002 53.9012C326.214 53.7939 326.402 53.6436 326.552 53.4601C326.703 53.2765 326.814 53.0637 326.878 52.8351C327.026 52.3464 327.1 51.606 327.1 50.6435V32.1038C327.1 31.1413 327.026 30.4453 326.878 30.0011C326.812 29.7985 326.701 29.614 326.551 29.4623C326.402 29.3106 326.219 29.1959 326.017 29.1274C325.602 28.9793 324.934 28.8756 324.015 28.8164V28.0464C324.86 28.1204 326.032 28.1649 327.575 28.1649C328.717 28.1649 329.711 28.1204 330.556 28.0464L344.04 48.7925V32.4888C344.04 31.4967 343.951 30.7563 343.787 30.2824C343.71 30.0469 343.583 29.8309 343.414 29.6494C343.245 29.4679 343.038 29.3252 342.808 29.231C342.319 29.0089 341.577 28.8756 340.554 28.8312V28.0612C341.473 28.1352 342.764 28.1797 344.455 28.1797C345.983 28.1797 347.169 28.1352 348.015 28.0612V28.8312Z" fill="#1A3563"/>
<path d="M363.115 28.2241C361.483 28.2241 360.059 28.7868 358.813 29.927C357.567 31.0672 356.618 32.6369 355.951 34.6804C355.283 36.7239 354.942 39.0339 354.942 41.6549C354.942 44.3056 355.313 46.6305 356.069 48.6295C356.826 50.6286 357.834 52.1835 359.11 53.2793C360.386 54.3751 361.81 54.923 363.382 54.923C365.014 54.923 366.438 54.3603 367.684 53.22C368.93 52.0798 369.879 50.5102 370.546 48.4667C371.214 46.4231 371.555 44.1131 371.555 41.4921C371.555 38.8414 371.184 36.5166 370.428 34.5175C369.671 32.5184 368.663 30.9635 367.387 29.8677C366.111 28.772 364.702 28.2241 363.115 28.2241ZM363.278 27.5281C365.696 27.5281 367.817 28.076 369.642 29.1718C371.466 30.2676 372.88 31.852 373.884 33.9252C374.892 35.9983 375.397 38.4712 375.397 41.344C375.397 44.1427 374.883 46.6206 373.854 48.7776C372.831 50.9396 371.377 52.6129 369.538 53.8124C367.698 55.0118 365.592 55.6041 363.248 55.6041C360.831 55.6041 358.71 55.0562 356.885 53.9604C355.061 52.8646 353.646 51.2802 352.643 49.2071C351.634 47.1339 351.13 44.661 351.13 41.7882C351.13 38.9895 351.644 36.5116 352.672 34.3546C353.701 32.1975 355.14 30.5193 356.989 29.3199C358.828 28.1352 360.935 27.5281 363.278 27.5281Z" fill="#1A3563"/>
<path d="M388.242 28.8312C387.323 28.8756 386.655 28.9793 386.24 29.1422C386.038 29.2107 385.855 29.3255 385.706 29.4772C385.556 29.6289 385.445 29.8133 385.379 30.0159C385.231 30.4453 385.157 31.1413 385.157 32.1186V51.0285C385.157 51.991 385.231 52.687 385.379 53.1312C385.443 53.3331 385.554 53.5166 385.704 53.6662C385.854 53.8157 386.038 53.9269 386.24 53.9901C386.655 54.1234 387.323 54.1974 388.242 54.1974H391.031C392.603 54.1974 393.82 53.9753 394.635 53.531C395.451 53.0868 396.074 52.3612 396.445 51.3691C396.816 50.3769 397.112 48.9405 397.29 47.0599H398.166C398.091 47.8447 398.047 48.8961 398.047 50.1844C398.047 51.6356 398.136 53.2645 398.314 55.0711C396.578 54.997 393.671 54.9526 389.562 54.9526C384.667 54.9526 380.974 54.9921 378.482 55.0711V54.3011C379.402 54.2566 380.069 54.153 380.485 53.9901C380.686 53.9215 380.869 53.8068 381.018 53.6551C381.168 53.5034 381.28 53.3189 381.345 53.1164C381.493 52.687 381.567 51.991 381.567 51.0137V32.1038C381.567 31.1413 381.493 30.4453 381.345 30.0011C381.28 29.7985 381.168 29.614 381.018 29.4623C380.869 29.3106 380.686 29.1959 380.485 29.1274C380.069 28.9793 379.402 28.8756 378.482 28.8164V28.0464C379.55 28.1204 381.182 28.1649 383.377 28.1649C385.409 28.1649 387.026 28.1204 388.227 28.0464V28.8312H388.242Z" fill="#1A3563"/>
<path d="M413.948 28.2241C412.346 28.2088 410.802 28.82 409.646 29.927C408.415 31.0524 407.451 32.6369 406.784 34.6804C406.116 36.7239 405.775 39.0339 405.775 41.6549C405.775 44.3056 406.146 46.6305 406.902 48.6295C407.659 50.6286 408.667 52.1835 409.943 53.2793C411.219 54.3751 412.643 54.923 414.215 54.923C415.847 54.923 417.271 54.3603 418.517 53.22C419.763 52.0798 420.712 50.5102 421.379 48.4667C422.047 46.4231 422.388 44.1131 422.388 41.4921C422.388 38.8414 422.017 36.5166 421.261 34.5175C420.504 32.5184 419.496 30.9635 418.22 29.8677C416.944 28.772 415.535 28.2241 413.948 28.2241ZM414.111 27.5281C416.529 27.5281 418.65 28.076 420.475 29.1718C422.299 30.2676 423.713 31.852 424.717 33.9252C425.726 35.9983 426.23 38.4712 426.23 41.344C426.23 44.1427 425.716 46.6206 424.687 48.7776C423.659 50.9347 422.22 52.6129 420.371 53.8124C418.532 55.0118 416.425 55.6041 414.082 55.6041C411.664 55.6041 409.543 55.0562 407.718 53.9604C405.894 52.8646 404.48 51.2802 403.476 49.2071C402.467 47.1339 401.963 44.661 401.963 41.7882C401.963 38.9895 402.477 36.5116 403.506 34.3546C404.534 32.1975 405.973 30.5193 407.822 29.3199C409.661 28.1352 411.768 27.5281 414.111 27.5281Z" fill="#1A3563"/>
<path d="M441.627 27.5281C443.125 27.5281 444.371 27.7354 445.335 28.15C446.453 28.6577 447.517 29.2779 448.509 30.001C448.836 30.2528 449.088 30.386 449.266 30.386C449.755 30.386 450.067 29.616 450.215 28.0612H451.09C450.991 29.7197 450.942 32.6418 450.942 36.8275H450.067C449.889 35.7039 449.646 34.5915 449.34 33.4957C449.102 32.6546 448.699 31.8693 448.153 31.1857C447.379 30.2444 446.393 29.4986 445.276 29.0089C444.106 28.48 442.837 28.2073 441.553 28.2092C439.922 28.1916 438.342 28.7771 437.117 29.8529C435.842 30.9487 434.863 32.5036 434.18 34.5175C433.498 36.5314 433.142 38.9007 433.142 41.5957C433.142 46.1714 433.874 49.523 435.337 51.6504C436.801 53.7778 439.1 54.839 442.235 54.8341C443.763 54.8341 445.083 54.4343 446.21 53.6495C446.67 53.3385 446.967 53.0423 447.115 52.7462C447.267 52.365 447.337 51.9566 447.323 51.5467V47.8891C447.323 46.823 447.219 46.0529 447.011 45.5643C446.916 45.3312 446.772 45.1217 446.587 44.9503C446.403 44.7789 446.183 44.6499 445.943 44.5721C445.439 44.3944 444.608 44.276 443.466 44.2316V43.4615C444.786 43.5356 446.581 43.58 448.85 43.58C450.586 43.58 451.906 43.5356 452.826 43.4615V44.2316C452.247 44.276 451.817 44.3796 451.55 44.5425C451.283 44.7054 451.105 44.9868 451.016 45.4162C450.927 45.8456 450.883 46.5416 450.883 47.5189V55.071H450.111C450.082 54.5695 449.977 54.0753 449.8 53.605C449.622 53.1312 449.384 52.8943 449.073 52.8943C448.913 52.8985 448.755 52.939 448.613 53.0127C448.334 53.172 448.067 53.3502 447.812 53.5458C446.975 54.2018 446.038 54.7216 445.038 55.0858C444.013 55.4411 442.934 55.6164 441.849 55.6041C439.224 55.6041 436.984 55.071 435.1 53.9901C433.226 52.9063 431.726 51.2796 430.799 49.3255C429.805 47.2968 429.315 44.8683 429.315 42.04C429.315 39.1376 429.844 36.5906 430.902 34.399C431.955 32.1926 433.424 30.5045 435.278 29.3199C437.132 28.1352 439.268 27.5281 441.627 27.5281Z" fill="#1A3563"/>
<path d="M476.944 28.1797C478.087 28.1797 479.051 28.1353 479.807 28.0613V28.8313C479.227 29.0028 478.71 29.3431 478.324 29.8086C477.834 30.3269 477.315 31.1414 476.752 32.2371L470.759 44.0984V51.0434C470.759 52.0059 470.833 52.7019 470.981 53.1461C471.047 53.3486 471.158 53.5331 471.308 53.6848C471.457 53.8365 471.64 53.9512 471.842 54.0198C472.257 54.1679 472.925 54.2715 473.844 54.3307V55.1008C472.672 55.0267 471.056 54.9823 468.994 54.9823C466.799 54.9823 465.167 55.0267 464.099 55.1008V54.3307C465.019 54.2863 465.686 54.1827 466.101 54.0198C466.303 53.9512 466.486 53.8365 466.635 53.6848C466.785 53.5331 466.896 53.3486 466.962 53.1461C467.11 52.7167 467.184 52.0207 467.184 51.0434V45.3275L459.426 31.0229C458.967 30.1788 458.566 29.6161 458.225 29.32C457.954 29.0546 457.595 28.8968 457.216 28.8757V28.0761C458.21 28.1501 459.337 28.1946 460.583 28.1946C463.061 28.1946 464.841 28.1501 465.938 28.0761V28.8757C464.158 28.8757 463.268 29.3644 463.268 30.3269C463.294 30.7946 463.426 31.2504 463.654 31.6596L469.988 43.8318L474.883 34.1474C475.565 32.7999 475.921 31.7041 475.921 30.8748C475.921 30.164 475.639 29.6605 475.075 29.3496C474.512 29.0386 473.681 28.8757 472.554 28.8609V28.0909C474.007 28.1353 475.476 28.1797 476.944 28.1797Z" fill="#1A3563"/>
<path d="M101.221 72.9296V65.0221H101.993V69.6126L106.354 65.0073H107.214L103.98 68.4872L107.392 72.9296H106.532L103.491 68.9463L101.993 70.5011V72.9296H101.221Z" fill="#193664"/>
<path d="M116.9 72.2336V72.9296H111.575V65.0073H116.796V65.7033H112.346V68.5613H116.232V69.2128H112.346V72.2336H116.9Z" fill="#193664"/>
<path d="M126.408 72.2336V72.9296H121.083V65.0073H126.319V65.7033H121.854V68.5613H125.74V69.2128H121.854V72.2336H126.408Z" fill="#193664"/>
<path d="M130.991 69.3165H133.528C133.75 69.3221 133.969 69.2711 134.166 69.1684C134.354 69.0687 134.52 68.9328 134.655 68.7686C134.794 68.5968 134.899 68.401 134.967 68.1911C135.043 67.972 135.083 67.7419 135.085 67.5099C135.087 67.2714 135.042 67.035 134.952 66.814C134.868 66.6052 134.753 66.4104 134.611 66.2364C134.468 66.0715 134.291 65.9401 134.091 65.8514C133.896 65.762 133.683 65.7165 133.468 65.7182H131.006L130.991 69.3165ZM130.22 72.9297V65.0074H133.498C133.828 65.0051 134.153 65.0813 134.447 65.2295C134.724 65.3744 134.975 65.5646 135.189 65.7922C135.397 66.029 135.562 66.2994 135.679 66.5918C135.796 66.8786 135.856 67.1854 135.857 67.4951C135.854 67.8178 135.799 68.1379 135.693 68.4428C135.588 68.7339 135.432 69.0044 135.234 69.2425C135.029 69.474 134.782 69.6649 134.507 69.8052C134.217 69.9501 133.896 70.0213 133.572 70.0125H130.991V72.9297H130.22Z" fill="#193664"/>
<path d="M146.789 65.0222H146.017V72.9297H146.789V65.0222Z" fill="#193664"/>
<path d="M152.069 66.4585V72.9296H151.298V65.0073H151.906L157.157 71.5969V65.0221H157.928V72.9296H157.246L152.069 66.4585Z" fill="#193664"/>
<path d="M163.595 66.4585V72.9296H162.823V65.0073H163.431L168.682 71.5969V65.0221H169.439V72.9296H168.771L163.595 66.4585Z" fill="#193664"/>
<path d="M174.408 68.9758C174.409 69.3989 174.479 69.819 174.616 70.2197C174.749 70.6056 174.956 70.9624 175.224 71.271C175.483 71.577 175.801 71.8286 176.158 72.0114C176.532 72.1932 176.944 72.2845 177.36 72.278C177.783 72.2802 178.201 72.1785 178.576 71.9818C178.932 71.7973 179.246 71.54 179.496 71.2266C179.748 70.9124 179.944 70.5566 180.074 70.1753C180.208 69.7892 180.278 69.3842 180.282 68.9758C180.283 68.5512 180.207 68.13 180.059 67.7319C179.925 67.346 179.719 66.9892 179.451 66.6806C179.195 66.3748 178.877 66.1274 178.517 65.955C178.147 65.7748 177.741 65.6835 177.33 65.6884C176.908 65.6813 176.49 65.7779 176.114 65.9698C175.758 66.1543 175.444 66.4116 175.194 66.725C174.941 67.0392 174.746 67.395 174.616 67.7763C174.48 68.1617 174.409 68.5672 174.408 68.9758ZM177.345 72.9888C176.821 72.992 176.304 72.8755 175.832 72.6482C175.384 72.4288 174.986 72.1216 174.66 71.7449C174.329 71.3667 174.072 70.9297 173.904 70.4566C173.728 69.9826 173.637 69.4813 173.637 68.9758C173.631 68.4588 173.727 67.9457 173.918 67.4654C174.101 66.9925 174.367 66.5561 174.705 66.1771C175.04 65.8078 175.442 65.5062 175.891 65.2886C176.349 65.0693 176.852 64.9579 177.36 64.9628C177.885 64.9574 178.405 65.0793 178.873 65.3182C179.321 65.543 179.719 65.8552 180.045 66.2363C180.369 66.6189 180.625 67.0547 180.801 67.5246C180.978 67.9932 181.068 68.4899 181.068 68.9906C181.073 69.5076 180.978 70.0207 180.786 70.501C180.603 70.9694 180.337 71.4008 180 71.7745C179.674 72.1433 179.275 72.4408 178.828 72.6482C178.366 72.8738 177.859 72.9903 177.345 72.9888Z" fill="#193664"/>
<path d="M185.281 65.0073L188.129 71.9523L190.932 65.0073H191.763L188.455 72.9296H187.773L184.465 65.0073H185.281Z" fill="#193664"/>
<path d="M198.363 65.9255L196.732 69.8348H199.951L198.363 65.9255ZM194.729 72.9297L198.052 65.0222H198.69L202.012 72.9297H201.182L200.158 70.4568H196.598L195.59 72.9297H194.729Z" fill="#193664"/>
<path d="M211.283 65.7033H208.465V72.9296H207.679V65.7033H204.86V65.0073H211.283V65.7033Z" fill="#193664"/>
<path d="M216.252 65.0222H215.481V72.9297H216.252V65.0222Z" fill="#193664"/>
<path d="M221.533 66.4585V72.9296H220.761V65.0073H221.37L226.62 71.5969V65.0221H227.377V72.9296H226.709L221.533 66.4585Z" fill="#193664"/>
<path d="M238.146 71.7745C237.404 72.5742 236.559 72.974 235.609 72.974C235.095 72.9755 234.588 72.859 234.126 72.6334C233.68 72.4047 233.283 72.0931 232.954 71.7153C232.625 71.3334 232.364 70.8975 232.183 70.427C231.994 69.9562 231.898 69.4533 231.901 68.9462C231.898 68.4307 231.988 67.919 232.168 67.4358C232.337 66.9672 232.594 66.535 232.925 66.1623C233.245 65.7939 233.639 65.4964 234.082 65.2886C234.539 65.0662 235.042 64.9546 235.55 64.9628C235.906 64.9586 236.26 65.0034 236.603 65.0961C236.899 65.1783 237.183 65.2977 237.449 65.4515C237.692 65.6012 237.912 65.7858 238.101 65.9994C238.29 66.2096 238.449 66.4436 238.576 66.6954L237.968 67.0952C237.741 66.6466 237.391 66.2716 236.959 66.0142C236.523 65.7774 236.032 65.6599 235.535 65.6736C235.122 65.6647 234.714 65.7615 234.349 65.955C234 66.1384 233.692 66.3903 233.444 66.6954C233.191 67.0096 232.995 67.3654 232.865 67.7467C232.73 68.1426 232.66 68.5576 232.658 68.9758C232.655 69.4101 232.731 69.8414 232.88 70.2493C233.019 70.6395 233.236 70.9973 233.518 71.3007C233.788 71.5982 234.109 71.8441 234.467 72.0263C234.832 72.2048 235.233 72.296 235.639 72.2928C236.088 72.2954 236.531 72.1886 236.93 71.9818C237.386 71.7315 237.789 71.3945 238.116 70.9897V69.657H236.366V69.0498H238.784V72.9444H238.116V71.7745H238.146Z" fill="#193664"/>
<path d="M254.67 65.6885V68.6057H257.399C257.584 68.605 257.766 68.5646 257.933 68.4872C258.094 68.4042 258.24 68.294 258.363 68.1614C258.488 68.0293 258.584 67.8731 258.645 67.7024C258.779 67.345 258.784 66.9525 258.66 66.5918C258.604 66.422 258.513 66.2656 258.393 66.1327C258.278 66.0006 258.137 65.8946 257.978 65.8218C257.816 65.7443 257.638 65.7039 257.459 65.7033H254.67V65.6885ZM259.061 70.7528C259.063 70.5603 259.028 70.369 258.957 70.1901C258.89 70.0177 258.794 69.8576 258.675 69.7163C258.552 69.5791 258.407 69.4639 258.245 69.3757C258.081 69.2867 257.897 69.2408 257.711 69.2424H254.67V72.2336H257.622C257.816 72.233 258.008 72.1927 258.185 72.1152C258.356 72.0326 258.511 71.9225 258.645 71.7894C258.774 71.6525 258.875 71.4915 258.942 71.3155C259.018 71.1375 259.058 70.9463 259.061 70.7528ZM259.847 70.8861C259.851 71.1677 259.79 71.4464 259.669 71.7005C259.55 71.9439 259.389 72.1645 259.194 72.3521C258.988 72.5342 258.752 72.6795 258.497 72.7815C258.222 72.8845 257.93 72.9348 257.637 72.9296H253.913V65.0073H257.726C257.984 65.0028 258.239 65.064 258.467 65.185C258.686 65.2959 258.878 65.4525 259.031 65.6441C259.195 65.8333 259.316 66.0555 259.387 66.2956C259.474 66.5277 259.519 66.7734 259.52 67.0212C259.523 67.4065 259.42 67.7852 259.224 68.117C259.026 68.4404 258.737 68.6981 258.393 68.8574C258.827 68.9768 259.208 69.2374 259.476 69.5978C259.72 69.983 259.849 70.4301 259.847 70.8861Z" fill="#14A5C6"/>
<path d="M266.907 72.2781C267.34 72.2973 267.771 72.2001 268.153 71.9967C268.469 71.814 268.738 71.5605 268.939 71.2563C269.141 70.934 269.281 70.5777 269.355 70.2049C269.432 69.8097 269.471 69.4081 269.473 69.0055V65.0073H270.26V69.0055C270.262 69.5192 270.202 70.0312 270.082 70.5307C269.974 70.9845 269.778 71.4124 269.503 71.7894C269.232 72.1598 268.876 72.4596 268.465 72.6631C267.98 72.8964 267.445 73.0082 266.907 72.9889C266.358 73.0051 265.814 72.8883 265.32 72.6483C264.905 72.4423 264.552 72.1307 264.297 71.745C264.029 71.3602 263.838 70.928 263.733 70.4715C263.619 69.9914 263.564 69.499 263.57 69.0055V65.0073H264.341V69.0055C264.343 69.413 264.383 69.8195 264.46 70.2198C264.537 70.5913 264.678 70.9469 264.875 71.2711C265.072 71.5787 265.342 71.833 265.661 72.0115C266.05 72.198 266.477 72.2894 266.907 72.2781Z" fill="#14A5C6"/>
<path d="M275.688 65.1111H274.932V72.8409H275.688V65.1111Z" fill="#14A5C6"/>
<path d="M280.598 72.8408V65.0962H281.34V72.1744H285.834V72.8408H280.598Z" fill="#14A5C6"/>
<path d="M295.224 68.9609C295.23 68.5239 295.164 68.0889 295.031 67.6726C294.907 67.3019 294.71 66.9596 294.452 66.6657C294.195 66.3825 293.882 66.1556 293.533 65.9993C293.134 65.833 292.704 65.7523 292.272 65.7624H290.403V72.1595H292.272C292.71 72.1649 293.144 72.0791 293.548 71.9077C293.905 71.759 294.221 71.5252 294.467 71.2266C294.724 70.9285 294.916 70.5806 295.031 70.2048C295.16 69.8027 295.225 69.383 295.224 68.9609ZM289.646 72.8406V65.096H292.272C292.832 65.0847 293.387 65.1906 293.904 65.407C294.347 65.5924 294.743 65.8759 295.061 66.2363C295.372 66.5958 295.609 67.0135 295.758 67.4653C295.908 67.9495 295.983 68.454 295.98 68.9609C295.988 69.5057 295.898 70.0475 295.713 70.5602C295.553 71.0161 295.3 71.4344 294.972 71.7893C294.644 72.1346 294.244 72.4028 293.8 72.5741C293.309 72.7694 292.785 72.865 292.257 72.8554H289.646V72.8406Z" fill="#14A5C6"/>
<path d="M301.261 65.1111H300.504V72.8409H301.261V65.1111Z" fill="#14A5C6"/>
<path d="M306.675 66.5178V72.8408H305.933V65.0962H306.512L311.659 71.5525V65.111H312.401V72.8408H311.748L306.675 66.5178Z" fill="#14A5C6"/>
<path d="M323.184 71.7154C322.457 72.5002 321.642 72.9001 320.707 72.9001C320.202 72.9016 319.705 72.785 319.253 72.5595C318.818 72.3411 318.43 72.0392 318.111 71.671C317.784 71.3014 317.527 70.8747 317.355 70.4123C317.178 69.9489 317.087 69.4571 317.088 68.9611C317.086 68.4554 317.176 67.9536 317.355 67.4803C317.525 67.0243 317.776 66.6029 318.096 66.2364C318.413 65.874 318.802 65.5815 319.239 65.3776C319.688 65.1638 320.179 65.0525 320.677 65.0518C321.027 65.0503 321.375 65.0901 321.716 65.1703C322.008 65.2497 322.287 65.3693 322.546 65.5257C322.785 65.6704 323 65.8501 323.184 66.0587C323.367 66.2641 323.522 66.4932 323.644 66.7399L323.051 67.1397C322.829 66.7003 322.483 66.335 322.057 66.0884C321.628 65.8598 321.149 65.7427 320.663 65.7478C320.261 65.7411 319.864 65.8326 319.506 66.0143C319.165 66.1966 318.863 66.443 318.616 66.7399C318.37 67.0511 318.18 67.4016 318.052 67.7765C317.921 68.1627 317.855 68.5681 317.859 68.9759C317.858 69.4005 317.934 69.8218 318.082 70.2198C318.221 70.602 318.432 70.9539 318.705 71.2564C318.963 71.5497 319.275 71.7909 319.624 71.9672C319.984 72.1456 320.38 72.2369 320.781 72.2337C321.221 72.2345 321.654 72.1277 322.042 71.9227C322.489 71.6769 322.882 71.3446 323.199 70.9454V69.6423H321.478V69.05H323.852V72.8556H323.199V71.7154H323.184Z" fill="#14A5C6"/>
<path d="M336.578 65.9995L334.976 69.8348H338.121L336.578 65.9995ZM333.019 72.8408L336.267 65.0962H336.89L340.138 72.8408H339.323L338.314 70.4123H334.828L333.834 72.8408H333.019Z" fill="#14A5C6"/>
<path d="M350.7 66.5178V72.8408H349.943V65.0962H350.536L355.669 71.5525V65.111H356.425V72.8408H355.773L350.7 66.5178Z" fill="#14A5C6"/>
<path d="M366.319 72.1744V72.8408H361.098V65.0962H366.215V65.7774H361.854V68.5613H365.651V69.2128H361.854V72.1744H366.319Z" fill="#14A5C6"/>
<path d="M373.023 65.1554H373.765L374.863 67.8949L375.96 65.1554H376.687L375.323 68.4576L376.806 71.9671L379.624 65.0962H380.455L377.177 72.8408H376.494L374.863 69.0203L373.231 72.8408H372.549L369.286 65.0962H370.087L372.905 71.9671L374.388 68.4576L373.023 65.1554Z" fill="#14A5C6"/>
<path d="M390.26 72.8408V65.0962H395.347V65.7774H391.016V68.6205H394.68V69.2573H391.016V72.8408H390.26Z" fill="#14A5C6"/>
<path d="M402.408 72.204C402.831 72.2217 403.252 72.1245 403.624 71.9226C403.935 71.7449 404.199 71.4962 404.396 71.197C404.594 70.8804 404.73 70.5284 404.796 70.1605C404.873 69.7752 404.913 69.3835 404.915 68.9906V65.0813H405.686V69.0054C405.688 69.5094 405.628 70.0116 405.508 70.501C405.4 70.9472 405.208 71.369 404.944 71.7449C404.684 72.1055 404.337 72.3956 403.936 72.589C403.462 72.8087 402.944 72.9152 402.423 72.8999C401.885 72.9209 401.35 72.809 400.865 72.5742C400.466 72.3653 400.12 72.0661 399.857 71.7005C399.603 71.3208 399.417 70.8999 399.308 70.4566C399.201 69.9853 399.146 69.5036 399.145 69.0202V65.1109H399.901V69.0054C399.902 69.4032 399.942 69.7999 400.02 70.1901C400.09 70.5544 400.231 70.9014 400.435 71.2118C400.631 71.511 400.896 71.7597 401.206 71.9374C401.578 72.1256 401.991 72.2173 402.408 72.204Z" fill="#14A5C6"/>
<path d="M416.173 65.7774H413.399V72.8408H412.643V65.7774H409.869V65.0962H416.173V65.7774Z" fill="#14A5C6"/>
<path d="M423.234 72.204C423.657 72.2217 424.077 72.1245 424.45 71.9226C424.761 71.7449 425.025 71.4962 425.221 71.197C425.42 70.8804 425.556 70.5284 425.622 70.1605C425.699 69.7752 425.738 69.3835 425.74 68.9906V65.0813H426.512V69.0054C426.514 69.5094 426.454 70.0116 426.334 70.501C426.225 70.9472 426.034 71.369 425.77 71.7449C425.509 72.1055 425.163 72.3956 424.761 72.589C424.288 72.8087 423.77 72.9152 423.248 72.8999C422.71 72.9209 422.175 72.809 421.691 72.5742C421.291 72.3653 420.946 72.0661 420.682 71.7005C420.428 71.3208 420.243 70.8999 420.133 70.4566C420.026 69.9853 419.972 69.5036 419.97 69.0202V65.1109H420.727V69.0054C420.728 69.4032 420.768 69.7999 420.845 70.1901C420.916 70.5544 421.057 70.9014 421.261 71.2118C421.457 71.511 421.721 71.7597 422.032 71.9374C422.403 72.129 422.817 72.2208 423.234 72.204Z" fill="#14A5C6"/>
<path d="M431.778 69.3017H434.329C434.546 69.3055 434.76 69.2545 434.952 69.1536C435.135 69.0536 435.297 68.9176 435.426 68.7538C435.562 68.5853 435.667 68.395 435.738 68.1911C435.854 67.8722 435.882 67.5282 435.819 67.1948C435.757 66.8615 435.606 66.551 435.382 66.2956C435.238 66.1389 435.067 66.0086 434.878 65.9106C434.688 65.8182 434.481 65.7677 434.269 65.7626H431.792L431.778 69.3017ZM431.036 72.8408V65.0962H434.299C434.622 65.0963 434.941 65.167 435.234 65.3035C435.512 65.4399 435.759 65.6313 435.96 65.8662C436.166 66.096 436.327 66.3622 436.435 66.651C436.546 66.9339 436.602 67.2356 436.598 67.5395C436.596 67.8151 436.556 68.0892 436.48 68.354C436.394 68.6014 436.274 68.8357 436.124 69.0499C435.975 69.2555 435.789 69.4313 435.575 69.5682C435.36 69.7143 435.118 69.8151 434.863 69.8644L436.776 72.8556H435.916L434.077 69.9977H431.778V72.8556L431.036 72.8408Z" fill="#14A5C6"/>
<path d="M446.892 72.1744V72.8408H441.686V65.0962H446.803V65.7774H442.443V68.5613H446.24V69.2128H442.443V72.1744H446.892Z" fill="#14A5C6"/>
</g>
<defs>
<radialGradient id="paint0_radial_234_2" cx="0" cy="0" r="1" gradientUnits="userSpaceOnUse" gradientTransform="translate(46.7989 44.1404) rotate(147.9) scale(19.1161 19.102)">
<stop stop-color="#00ADEC"/>
<stop offset="1"/>
</radialGradient>
<clipPath id="clip0_234_2">
<rect width="480" height="81" fill="white"/>
</clipPath>
</defs>
</svg>
